<svg width="48" height="49" viewBox="0 0 48 49" fill="none" xmlns="http://www.w3.org/2000/svg">
<g clip-path="url(#clip0_161_2197)">
<path fill-rule="evenodd" clip-rule="evenodd" d="M12 16.5C12 9.87258 17.3726 4.5 24 4.5C30.6274 4.5 36 9.87258 36 16.5C36 20.663 33.8802 24.3308 30.661 26.483C30.547 26.542 30.4398 26.6115 30.3405 26.6901C28.5007 27.8372 26.3278 28.5 24 28.5C17.3726 28.5 12 23.1274 12 16.5ZM29.9722 31.3482C28.1269 32.0911 26.1112 32.5 24 32.5C21.8896 32.5 19.8747 32.0914 18.03 31.3491L16.5289 42.6503L22.9711 38.785C23.6044 38.405 24.3957 38.405 25.029 38.785L31.4718 42.6507L29.9722 31.3482ZM14.279 29.2094C10.4617 26.2853 8 21.6801 8 16.5C8 7.66344 15.1634 0.5 24 0.5C32.8366 0.5 40 7.66344 40 16.5C40 21.679 37.5393 26.2834 33.7233 29.2076L35.9827 46.2369C36.0837 46.9982 35.7399 47.7501 35.098 48.1717C34.4561 48.5932 33.6296 48.6101 32.9711 48.215L24 42.8324L15.029 48.215C14.3705 48.6101 13.5439 48.5932 12.902 48.1716C12.2601 47.7499 11.9163 46.998 12.0175 46.2367L14.279 29.2094Z" fill="#27B5C4"/>
</g>
<defs>
<clipPath id="clip0_161_2197">
<rect width="48" height="48" fill="white" transform="translate(0 0.5)"/>
</clipPath>
</defs>
</svg>
