<?xml version="1.0" encoding="utf-8" ?>
<svg xmlns="http://www.w3.org/2000/svg" xmlns:xlink="http://www.w3.org/1999/xlink" width="1024" height="1024">
	<path fill="#BF6B6A" transform="scale(2 2)" d="M135.185 315.241C136.886 315.932 139.547 315.996 141.394 316.28C184.334 322.894 174.831 384.035 138.274 383.238C112.081 385.14 92.7732 355.845 107.065 332.638C114.405 320.72 122.73 318.141 135.185 315.241Z"/>
	<path fill="#BF6B6A" transform="scale(2 2)" d="M356.204 315.241C401.089 311.117 409.255 375.828 364.341 383.238C315.754 384.986 314.579 321.655 356.204 315.241Z"/>
	<path fill="#5AB4C5" transform="scale(2 2)" d="M320.093 172.261C335.32 172.475 350.582 172.272 365.813 172.265C378.03 172.259 393.419 169.396 401.461 181.084C405.637 187.155 409.925 199.634 412.9 206.767C419.605 222.837 426.458 238.838 432.962 254.994C462.691 265.808 455.058 288.692 452.614 314.098C450.122 339.997 446.927 343.234 420.54 343.227L402.109 343.21C399.869 323.062 382.677 308.458 362.852 307.075C342.201 305.635 319.725 322.179 318.372 343.661L193.637 343.661C188.399 343.679 183.155 343.747 177.917 343.661C169.233 297.331 104.636 295.668 94.83 343.661C84.5416 343.69 71.2038 345.689 63.7364 336.911C57.1848 329.209 57.9218 306.524 58.7376 295.53L304.393 295.663C319.946 295.759 320.134 283.864 320.116 273.019L320.093 172.261Z"/>
	<path fill="#FEFEFE" transform="scale(2 2)" d="M336.483 264.47L361.489 264.47L361.489 279.237L336.483 279.237L336.483 264.47Z"/>
	<path fill="#FEFEFE" transform="scale(2 2)" d="M417.819 287.918L453.185 287.918C451.075 298.108 448.695 308.243 446.409 318.395L446.409 320.492C435.418 320.267 424.382 320.485 413.387 320.492C414.515 309.627 416.51 298.777 417.819 287.918Z"/>
	<path fill="#FEFEFE" transform="scale(2 2)" d="M336.483 191.513L367.23 191.536C369.745 191.533 384.693 190.638 386.229 191.988C387.325 192.949 409.009 245.032 409.204 247.282L408.79 247.463L336.483 247.463L336.111 191.832L336.483 191.513Z"/>
	<path fill="#5AB4C5" transform="scale(2 2)" d="M80.3185 128.005C85.0883 127.701 89.9071 127.989 94.6838 127.995L278.837 127.993C288.07 127.99 296.463 127.612 303.804 134.31C315.873 145.321 312.469 166.393 312.456 181.535L312.466 264.277C312.479 269.582 312.939 275.33 312.419 280.597C311.39 291.035 297.548 287.948 290.375 287.918L58.7376 287.918C58.5717 285.215 58.7307 282.447 58.7316 279.734L58.733 172.11C58.7349 154.364 56.0499 131.516 80.3185 128.005ZM178.844 249.154C166.756 234.41 168.985 219.875 175.183 202.625C170.815 193.248 164.971 182.705 160.063 173.418C157.673 168.895 154.868 164.351 153.079 159.556C148.199 164.775 137.802 187.368 133.832 194.753L124.068 212.557C119.467 221.101 117.623 224.954 117.945 235.004C118.855 263.423 160.442 276.141 178.844 249.154Z"/>
	<path fill="#E29494" transform="scale(2 2)" d="M178.844 249.154C160.442 276.141 118.855 263.423 117.945 235.004C117.623 224.954 119.467 221.101 124.068 212.557L133.832 194.753C137.802 187.368 148.199 164.775 153.079 159.556C154.868 164.351 157.673 168.895 160.063 173.418C164.971 182.705 170.815 193.248 175.183 202.625C168.985 219.875 166.756 234.41 178.844 249.154ZM128.379 220.259C121.471 227.014 126.427 243.119 132.548 249.394C135.496 252.415 143.862 257.825 148.328 256.54C160.532 248.684 133.166 249.01 133.349 231.118C133.404 225.817 135.992 220.026 128.379 220.259Z"/>
	<path fill="#D7C2C2" transform="scale(2 2)" d="M175.183 202.625L196.36 161.583C200.109 154.185 204.516 143.342 209.587 136.962C217.744 153.371 226.195 169.595 234.725 185.812C238.847 193.651 245.792 204.084 247.957 212.485C257.779 250.589 209.148 281.562 178.844 249.154C166.756 234.41 168.985 219.875 175.183 202.625Z"/>
	<path fill="#BF6B6A" transform="scale(2 2)" d="M206.275 186.059C216.516 185.102 215.067 195.49 215.045 202.625C218.899 202.649 224.652 201.441 227.787 204.122C230.818 206.714 230.818 211.533 228.097 214.347C225.106 217.44 219.033 216.42 215.045 216.413C215.115 222.548 216.576 228.384 209.587 230.836C200.055 231.872 200.701 223.345 200.988 216.413C197.117 216.465 191.053 217.435 187.943 214.71C185.107 212.225 184.251 207.382 187.147 204.601C190.192 201.678 196.967 202.605 200.988 202.625C200.974 196.436 199.225 188.835 206.275 186.059Z"/>
</svg>
