<?xml version="1.0" encoding="utf-8" ?>
<svg xmlns="http://www.w3.org/2000/svg" xmlns:xlink="http://www.w3.org/1999/xlink" width="1024" height="1024">
	<path fill="#E29494" transform="scale(2 2)" d="M370.919 93.2571C379.171 93.0455 385.267 94.8001 392.222 99.3028C412.211 85.4184 438.705 98.7146 438.22 122.576C437.949 135.895 429.62 142.5 420.874 151.006L405.221 166.162C400.909 170.474 396.184 174.388 392.222 179.039C383.351 171.949 354.544 145.257 349.132 137.479C336.822 119.786 349.684 96.4137 370.919 93.2571Z"/>
	<path fill="#5AB4C5" transform="scale(2 2)" d="M417.504 381.443C417.73 385.945 417.488 390.506 417.504 395.016C421.967 395.073 438.763 393.103 439.245 397.938C439.474 400.237 439.441 419.699 439.04 421.425C438.499 423.752 437.157 423.652 435.058 423.687C422.08 423.905 409.055 423.667 396.072 423.667L74.7597 423.667L74.7597 395.016L87.356 395.037C89.7411 395.052 92.2047 395.206 94.576 395.016C102.069 395.3 109.683 395.017 117.19 395.016L394.977 395.016L417.504 395.016C417.479 390.526 417.235 385.922 417.504 381.443Z"/>
	<path fill="#5AB4C5" transform="scale(2 2)" d="M94.576 231.967C89.6943 231.725 83.9107 232.783 79.2115 231.533C74.1135 230.176 72.4937 224.44 76.3908 220.996C79.4022 218.335 83.0864 216.085 86.319 213.655L243.267 95.7296C255.873 86.3003 252.925 83.892 264.199 92.6396L419.685 209.583C425.297 213.86 431.563 217.986 436.7 222.809C437.808 235.634 429.093 232.008 417.504 231.967L417.504 235.883C417.322 234.576 417.435 233.28 417.504 231.967C410.006 231.814 402.477 231.955 394.977 231.967C395.043 233.281 395.02 234.57 394.977 235.883C394.939 234.583 394.974 233.269 394.977 231.967C387.062 231.739 379.074 231.964 371.151 231.965L138.083 231.963C131.137 231.965 124.127 232.21 117.19 231.967L117.19 395.016C109.683 395.017 102.069 395.3 94.576 395.016L94.576 385.443C94.302 368.437 94.5769 351.377 94.5775 334.367L94.576 231.967Z"/>
	<path fill="#468D9B" transform="scale(2 2)" d="M94.576 231.967L108.712 231.939C111.433 231.909 114.525 231.555 117.19 231.967L117.19 395.016C109.683 395.017 102.069 395.3 94.576 395.016L94.576 385.443C94.8064 385.07 94.5764 360.765 94.5762 357.952L94.5761 273.681C94.5766 259.806 94.9468 245.829 94.576 231.967Z"/>
	<path fill="#C2DCE1" transform="scale(2 2)" d="M394.977 231.967C402.477 231.955 410.006 231.814 417.504 231.967C417.435 233.28 417.322 234.576 417.504 235.883L417.504 332.683C417.505 348.926 417.737 365.204 417.504 381.443C417.235 385.922 417.479 390.526 417.504 395.016L394.977 395.016L117.19 395.016L117.19 231.967C124.127 232.21 131.137 231.965 138.083 231.963L371.151 231.965C379.074 231.964 387.062 231.739 394.977 231.967C394.974 233.269 394.939 234.583 394.977 235.883C395.02 234.57 395.043 233.281 394.977 231.967ZM256.624 239.159C238.894 258.399 203.793 302.412 204.8 329.748C205.912 359.978 223.521 381.974 255.68 381.443C287.927 381.889 306.696 359.455 307.168 328.214C307.576 301.156 281.951 271.461 265.441 249.887C262.88 246.541 260.008 241.646 256.624 239.159Z"/>
	<path fill="#5AB4C5" transform="scale(2 2)" d="M137.392 263.496L168.028 263.509C171.237 263.509 187.235 262.015 188.049 265.49C188.916 269.191 188.548 273.302 188.549 277.093L188.549 311.788C188.546 316.472 190.449 326.712 184.375 327.988L151.379 327.972C136.767 327.924 132.76 332.029 132.776 315.68L132.782 279.181C132.763 273.749 130.55 264.267 137.392 263.496Z"/>
	<path fill="#468D9B" transform="scale(2 2)" d="M394.977 231.967C402.477 231.955 410.006 231.814 417.504 231.967C417.435 233.28 417.322 234.576 417.504 235.883L417.504 332.683C417.505 348.926 417.737 365.204 417.504 381.443C417.235 385.922 417.479 390.526 417.504 395.016L394.977 395.016L394.977 235.883C395.02 234.57 395.043 233.281 394.977 231.967Z"/>
	<path fill="#5AB4C5" transform="scale(2 2)" d="M328.829 259.742C337.994 259.514 347.228 259.751 356.4 259.754C361.983 259.757 377.965 257.337 379.913 263.842C380.855 266.988 380.482 315.056 380.093 321.505C379.892 324.846 378.873 327.196 375.313 327.988L346.698 327.997C340.903 327.997 334.712 328.363 328.969 327.554C321.114 326.448 322.997 317.844 322.992 312.003L322.995 275.536C323 269.867 320.904 260.321 328.829 259.742Z"/>
	<path fill="#E29494" transform="scale(2 2)" d="M256.624 239.159C260.008 241.646 262.88 246.541 265.441 249.887C281.951 271.461 307.576 301.156 307.168 328.214C306.696 359.455 287.927 381.889 255.68 381.443C223.521 381.974 205.912 359.978 204.8 329.748C203.793 302.412 238.894 258.399 256.624 239.159ZM255.68 294.793C248.79 296.897 251.885 310.477 251.905 317.676C247.878 317.597 238.956 317.147 235.391 317.734C232.14 318.269 229.665 321.716 232.585 324.502C235.17 326.968 248.125 326.032 251.905 326.012C251.88 331.33 249.373 345.952 255.68 347.561C257.68 347.141 258.775 346.709 260.29 345.252C261.19 339.748 260.274 331.813 260.29 326.012C266.13 326.038 280.3 328.85 280.262 321.084C280.235 315.567 263.503 317.659 260.29 317.676C260.284 311.402 263.55 294.653 255.68 294.793Z"/>
</svg>
