<svg width="48" height="49" viewBox="0 0 48 49" fill="none" xmlns="http://www.w3.org/2000/svg">
<path fill-rule="evenodd" clip-rule="evenodd" d="M6 24.5C6 14.5589 14.0589 6.5 24 6.5C33.9411 6.5 42 14.5589 42 24.5C42 34.4411 33.9411 42.5 24 42.5C14.0589 42.5 6 34.4411 6 24.5ZM24 2.5C11.8497 2.5 2 12.3497 2 24.5C2 36.6503 11.8497 46.5 24 46.5C36.1503 46.5 46 36.6503 46 24.5C46 12.3497 36.1503 2.5 24 2.5ZM26 12.5C26 11.3954 25.1046 10.5 24 10.5C22.8954 10.5 22 11.3954 22 12.5V24.5C22 25.2575 22.428 25.9501 23.1056 26.2889L31.1056 30.2889C32.0935 30.7828 33.2949 30.3824 33.7889 29.3944C34.2828 28.4065 33.8824 27.2051 32.8944 26.7111L26 23.2639V12.5Z" fill="#27B5C4"/>
</svg>
