<svg width="48" height="49" viewBox="0 0 48 49" fill="none" xmlns="http://www.w3.org/2000/svg">
<g clip-path="url(#clip0_161_3200)">
<path fill-rule="evenodd" clip-rule="evenodd" d="M26 2.5C26 1.39543 25.1046 0.5 24 0.5C22.8954 0.5 22 1.39543 22 2.5V8.5H19C16.6131 8.5 14.3239 9.44821 12.636 11.136C10.9482 12.8239 10 15.1131 10 17.5C10 19.8869 10.9482 22.1761 12.636 23.864C14.3239 25.5518 16.6131 26.5 19 26.5H22V36.5H12C10.8954 36.5 10 37.3954 10 38.5C10 39.6046 10.8954 40.5 12 40.5H22V46.5C22 47.6046 22.8954 48.5 24 48.5C25.1046 48.5 26 47.6046 26 46.5V40.5H29C31.3869 40.5 33.6761 39.5518 35.364 37.864C37.0518 36.1761 38 33.8869 38 31.5C38 29.1131 37.0518 26.8239 35.364 25.136C33.6761 23.4482 31.3869 22.5 29 22.5H26V12.5H34C35.1046 12.5 36 11.6046 36 10.5C36 9.39543 35.1046 8.5 34 8.5H26V2.5ZM22 12.5H19C17.6739 12.5 16.4021 13.0268 15.4645 13.9645C14.5268 14.9021 14 16.1739 14 17.5C14 18.8261 14.5268 20.0979 15.4645 21.0355C16.4021 21.9732 17.6739 22.5 19 22.5H22V12.5ZM26 26.5V36.5H29C30.3261 36.5 31.5979 35.9732 32.5355 35.0355C33.4732 34.0979 34 32.8261 34 31.5C34 30.1739 33.4732 28.9021 32.5355 27.9645C31.5979 27.0268 30.3261 26.5 29 26.5H26Z" fill="#27B5C4"/>
</g>
<defs>
<clipPath id="clip0_161_3200">
<rect width="48" height="48" fill="white" transform="translate(0 0.5)"/>
</clipPath>
</defs>
</svg>
