<svg width="48" height="49" viewBox="0 0 48 49" fill="none" xmlns="http://www.w3.org/2000/svg">
<path fill-rule="evenodd" clip-rule="evenodd" d="M23.9991 3.88001C24.5299 3.87977 25.0389 4.0905 25.4142 4.46579L36.7338 15.7853C36.7336 15.7852 36.7339 15.7855 36.7338 15.7853C39.252 18.3021 40.9678 21.5097 41.6633 25.0015C42.3588 28.4934 42.003 32.1132 40.641 35.403C39.2789 38.6928 36.9718 41.5047 34.0115 43.4831C31.0512 45.4614 27.5706 46.5174 24.01 46.5174C20.4495 46.5174 16.9689 45.4614 14.0085 43.4831C11.0482 41.5047 8.74109 38.6928 7.37906 35.403C6.01703 32.1132 5.66126 28.4934 6.35675 25.0015C7.05213 21.51 8.7672 18.3032 11.2851 15.7865C11.2847 15.7869 11.2855 15.7861 11.2851 15.7865L22.5846 4.46704C22.9595 4.09142 23.4684 3.88024 23.9991 3.88001ZM24.0013 8.70968L14.1138 18.6147C12.1549 20.5723 10.8206 23.0668 10.2797 25.7828C9.73876 28.4988 10.0155 31.3142 11.0748 33.8729C12.1342 36.4316 13.9286 38.6186 16.2311 40.1574C18.5336 41.6961 21.2407 42.5174 24.01 42.5174C26.7793 42.5174 29.4865 41.6961 31.789 40.1574C34.0914 38.6186 35.8859 36.4316 36.9452 33.8729C38.0046 31.3142 38.2813 28.4988 37.7403 25.7828C37.1994 23.0668 35.8651 20.5723 33.9063 18.6147L24.0013 8.70968Z" fill="#27B5C4"/>
</svg>
