<?xml version="1.0" encoding="UTF-8" standalone="no"?>
<!-- Created with Inkscape (http://www.inkscape.org/) -->

<svg
   width="225.64169mm"
   height="196.50435mm"
   viewBox="0 0 225.64169 196.50435"
   version="1.1"
   id="svg5"
   xml:space="preserve"
   inkscape:export-filename="full.svg"
   inkscape:export-xdpi="96"
   inkscape:export-ydpi="96"
   sodipodi:docname="full.svg"
   inkscape:version="1.2.2 (b0a8486, 2022-12-01)"
   xmlns:inkscape="http://www.inkscape.org/namespaces/inkscape"
   xmlns:sodipodi="http://sodipodi.sourceforge.net/DTD/sodipodi-0.dtd"
   xmlns="http://www.w3.org/2000/svg"
   xmlns:svg="http://www.w3.org/2000/svg"><sodipodi:namedview
     id="namedview7"
     pagecolor="#ffffff"
     bordercolor="#000000"
     borderopacity="0.25"
     inkscape:showpageshadow="2"
     inkscape:pageopacity="0.0"
     inkscape:pagecheckerboard="0"
     inkscape:deskcolor="#d1d1d1"
     inkscape:document-units="mm"
     showgrid="false"
     inkscape:zoom="0.39535106"
     inkscape:cx="423.67409"
     inkscape:cy="567.84975"
     inkscape:window-width="1440"
     inkscape:window-height="847"
     inkscape:window-x="0"
     inkscape:window-y="25"
     inkscape:window-maximized="1"
     inkscape:current-layer="layer1" /><defs
     id="defs2" /><g
     inkscape:label="圖層 1"
     inkscape:groupmode="layer"
     id="layer1"
     transform="translate(-269.86624,-231.53868)"><path
       style="fill:#fefefe;fill-opacity:1;stroke-width:0.529;stroke-dasharray:none"
       id="path15753"
       sodipodi:type="arc"
       sodipodi:cx="381.83929"
       sodipodi:cy="322.56573"
       sodipodi:rx="12.919967"
       sodipodi:ry="6.0684695"
       sodipodi:start="0"
       sodipodi:end="6.2486425"
       sodipodi:open="true"
       sodipodi:arc-type="arc"
       d="m 394.75926,322.56573 a 12.919967,6.0684695 0 0 1 -12.80839,6.06825 12.919967,6.0684695 0 0 1 -13.02962,-5.96344 12.919967,6.0684695 0 0 1 12.58336,-6.17124 12.919967,6.0684695 0 0 1 13.24694,5.85685" /><path
       style="fill:#fefefe;fill-opacity:1;stroke-width:0.529;stroke-dasharray:none"
       id="path15394"
       sodipodi:type="arc"
       sodipodi:cx="467.00586"
       sodipodi:cy="400.18149"
       sodipodi:rx="4.1335964"
       sodipodi:ry="3.6266458"
       sodipodi:start="0"
       sodipodi:end="6.2486425"
       sodipodi:open="true"
       sodipodi:arc-type="arc"
       d="m 471.13946,400.18149 a 4.1335964,3.6266458 0 0 1 -4.0979,3.62651 4.1335964,3.6266458 0 0 1 -4.16868,-3.56388 4.1335964,3.6266458 0 0 1 4.0259,-3.68806 4.1335964,3.6266458 0 0 1 4.23821,3.50018" /><path
       style="fill:#fefefe;fill-opacity:1;stroke-width:0.529;stroke-dasharray:none"
       id="path15392"
       sodipodi:type="arc"
       sodipodi:cx="290.34323"
       sodipodi:cy="390.41287"
       sodipodi:rx="3.5284865"
       sodipodi:ry="2.4628363"
       sodipodi:start="0"
       sodipodi:end="6.2486425"
       sodipodi:open="true"
       sodipodi:arc-type="arc"
       d="m 293.87172,390.41287 a 3.5284865,2.4628363 0 0 1 -3.49802,2.46275 3.5284865,2.4628363 0 0 1 -3.55843,-2.42021 3.5284865,2.4628363 0 0 1 3.43656,-2.50455 3.5284865,2.4628363 0 0 1 3.61778,2.37696" /><path
       style="fill:#fefefe;fill-opacity:1;stroke-width:0.529;stroke-dasharray:none"
       id="path15362"
       sodipodi:type="arc"
       sodipodi:cx="358.40753"
       sodipodi:cy="269.7587"
       sodipodi:rx="10.775349"
       sodipodi:ry="5.6955419"
       sodipodi:start="0"
       sodipodi:end="6.2486425"
       sodipodi:open="true"
       sodipodi:arc-type="arc"
       d="m 369.18288,269.7587 a 10.775349,5.6955419 0 0 1 -10.6823,5.69533 10.775349,5.6955419 0 0 1 -10.86679,-5.59697 10.775349,5.6955419 0 0 1 10.49461,-5.79199 10.775349,5.6955419 0 0 1 11.04805,5.49693" /><path
       style="fill:#fefefe;fill-opacity:1;stroke-width:0.197223;stroke-dasharray:none"
       id="path15362-5"
       sodipodi:type="arc"
       sodipodi:cx="345.27188"
       sodipodi:cy="275.40292"
       sodipodi:rx="2.7708037"
       sodipodi:ry="3.0786715"
       sodipodi:start="0"
       sodipodi:end="6.2486425"
       sodipodi:open="true"
       sodipodi:arc-type="arc"
       d="m 348.04268,275.40292 a 2.7708037,3.0786715 0 0 1 -2.74687,3.07856 2.7708037,3.0786715 0 0 1 -2.79432,-3.02539 2.7708037,3.0786715 0 0 1 2.69862,-3.1308 2.7708037,3.0786715 0 0 1 2.84092,2.97131" /><g
       id="g1136"
       transform="matrix(0.26458333,0,0,0.26458333,-64.502873,-107.72779)"><path
         fill="#f7dcb0"
         transform="scale(2)"
         d="m 89.5893,239.137 c 3.3417,4.295 -0.5773,6.095 10.0588,11.005 -5.8648,3.488 -7.4685,3.989 -10.0588,10.752 l -0.182,0.215 c -1.202,-0.976 -1.5257,-3.825 -2.3898,-5.255 -1.7597,-2.911 -4.885,-3.565 -7.2722,-5.529 2.9393,-3.897 5.2357,-1.525 9.844,-11.188 z"
         id="path1049" /><path
         fill="#f7dcb0"
         transform="scale(2)"
         d="m 399.221,202.657 c 2.675,2.651 -0.508,7.721 9.932,13.057 -5.904,3.761 -7.305,5.859 -9.932,12.234 -2.118,-6.186 -4.087,-9.751 -10.696,-12.234 6.402,-2.239 8.802,-6.774 10.696,-13.057 z"
         id="path1051" /><path
         fill="#e46766"
         transform="scale(2)"
         d="m 195.397,84.4484 c -3.361,2.0172 -6.948,3.5924 -10.752,1.4514 -13.521,-7.6099 9.573,-25.5222 12.568,-5.7572 -0.457,1.5698 -0.86,2.9497 -1.816,4.3058 z"
         id="path1053" /><path
         fill="#e46766"
         transform="scale(2)"
         d="m 296.584,77.6038 c -0.141,-5.1883 3.049,-9.3031 8.56,-9.168 15.182,0.3722 5.718,25.6382 -6.742,13.4095 -1.006,-1.3035 -1.415,-2.6778 -1.818,-4.2415 z"
         id="path1055" /><path
         fill="#f7dcb0"
         transform="scale(2)"
         d="m 93.6992,150.889 c 0.3301,0.517 0.3489,1.059 0.4872,1.651 2.4243,10.39 6.6296,12.539 15.1766,17.822 -11.7973,7.025 -9.5755,4.193 -15.6638,18.236 -4.9129,-6.301 -0.8027,-13.141 -16.4834,-18.236 11.2536,-8.099 10.3939,-3.437 16.4834,-19.473 z"
         id="path1057" /><path
         fill="#f7dcb0"
         transform="scale(2)"
         d="m 368.489,93.68 c 5.502,6.896 -0.95,16.417 20.036,25.105 -13.095,5.067 -16.429,10.471 -20.036,24.276 l -0.268,-0.03 c -0.544,-1.131 -0.694,-2.56 -1.059,-3.77 -2.853,-9.462 -8.804,-17.07 -18.403,-20.476 12.552,-6.805 14.987,-11.071 19.73,-25.105 z"
         id="path1059" /><path
         fill="#5ab4c5"
         transform="scale(2)"
         d="m 366.153,305.42 c 0.71,0.386 19.31,20.548 21.134,23.243 2.653,7.714 7.341,27.581 6.455,34.357 -0.17,1.3 -0.891,4.26 -2.762,3.243 -4.468,-2.431 -4.601,-13.75 -7.479,-15.258 -2.332,1.097 -1.434,16.652 -4.272,20.133 -0.89,1.091 -3.109,1.373 -4.08,0.249 -3.607,-4.173 1.836,-16.996 -0.624,-19.712 l -0.527,-0.014 c -2.73,1.627 -11.54,18.714 -15.726,14.22 -3.584,-3.847 11.615,-16.338 8.963,-19.487 -4.078,-1.184 -14.517,5.397 -15.403,-2.171 -0.494,-4.222 4.555,-3.652 7.22,-4.655 11.568,-4.357 8.55,-24.967 7.101,-34.148 z"
         id="path1061" /><path
         fill="#5ab4c5"
         transform="scale(2)"
         d="m 107.226,328.663 c 6.209,-5.006 18.944,-18.11 24.636,-20.71 -1.722,10.632 -3.342,23.18 6.097,30.682 1.62,1.288 13.309,8.061 9.757,10.634 -3.867,0.614 -12.908,-5.437 -15.471,-3.627 -2.583,4.593 11.554,15.532 9.25,20.525 -3.411,7.392 -17.935,-21.73 -17.977,-11.983 -0.02,4.542 2.879,15.496 0.104,19.05 -3.905,1.124 -7.905,-17.04 -8.463,-20.076 -1.831,-9.961 -5.906,14.574 -10.56,13.442 -2.935,-2.692 2.713,-30.152 2.627,-37.937 z"
         id="path1063" /><path
         fill="#5ab4c5"
         transform="scale(2)"
         d="m 186.749,369.474 c 0.655,0.322 1.341,0.624 1.977,0.98 12.558,5.035 22.176,6.805 34.781,10.06 v 1.969 c -1.984,5.201 -3.996,17.237 -4.965,23.179 8.111,4.488 16.455,11.64 20.277,20.293 8.53,19.309 -40.217,11.752 -48.483,8.071 -16.88,-7.515 -9.372,-51.659 -3.587,-64.552 z"
         id="path1065" /><path
         fill="#b0dfeb"
         transform="scale(2)"
         d="m 207.968,416.474 c 3.687,-0.096 4.27,2.796 1.405,4.517 -3.378,-0.106 -4.084,-2.849 -1.405,-4.517 z"
         id="path1067" /><path
         fill="#b0dfeb"
         transform="scale(2)"
         d="m 221.03,418.846 c 8.332,1.262 8.594,8.494 0.78,10.152 -8.012,-0.048 -8.568,-8.59 -0.78,-10.152 z"
         id="path1069" /><path
         fill="#5ab4c5"
         transform="scale(2)"
         d="m 273.095,380.514 c 15.995,-3.516 25.007,-5.472 40.144,-14.015 0.623,1.884 1.223,3.781 1.883,5.653 l 0.005,0.274 c 0.105,3.99 1.268,7.973 1.908,11.902 5.406,33.235 5.958,52.951 -32.663,54.125 -19.869,0.604 -39.862,-2.354 -16.69,-23.524 4.365,-3.988 9.431,-7.177 14.965,-9.267 -2.079,-6.557 -5.823,-12.824 -7.158,-19.545 -1.136,-1.847 -1.857,-3.511 -2.394,-5.603 z"
         id="path1071" /><path
         fill="#b0dfeb"
         transform="scale(2)"
         d="m 288.873,418.846 c 2.241,0.259 3.089,1.158 1.632,3.072 -2.158,0.189 -2.87,-1.175 -1.632,-3.072 z"
         id="path1073" /><path
         fill="#b0dfeb"
         transform="scale(2)"
         d="m 275.489,418.846 c 8.549,0.271 7.971,9.068 0,10.152 -8.338,-0.05 -8.359,-9.423 0,-10.152 z"
         id="path1075" /><path
         fill="#e29494"
         transform="scale(2)"
         d="m 275.489,111.956 c 1.313,-12.7877 9.808,-28.1843 21.095,-34.3522 0.403,1.5637 0.812,2.938 1.818,4.2415 -10.119,9.587 -15.268,17.6592 -18.383,31.8217 54.073,19.336 85.164,79.213 87.615,134.163 0.291,6.518 -0.308,13.101 0.113,19.59 11.628,13.022 36.843,41.998 35.643,57.661 -0.918,11.979 -10.254,7.191 -16.103,3.582 -1.824,-2.695 -20.424,-22.857 -21.134,-23.243 -1.426,-2.309 -3.011,-3.963 -5.016,-5.784 -4.092,28.859 -24.69,51.234 -47.898,66.863 -15.137,8.543 -24.149,10.499 -40.144,14.015 -13.033,4.067 -35.262,0.185 -49.588,0 -12.605,-3.255 -22.223,-5.025 -34.781,-10.06 -0.636,-0.356 -1.322,-0.658 -1.977,-0.98 -30.477,-14.247 -39.58,-36.456 -49.291,-66.012 -2.032,1.325 -3.844,2.815 -5.596,4.491 -5.692,2.6 -18.427,15.704 -24.636,20.71 -15.2463,8.599 -13.8391,-2.332 -9.4751,-14.553 6.7871,-19.007 18.2221,-31.889 32.8561,-45.22 0.35,-6.972 -0.141,-14.008 0.081,-20.999 1.288,-40.555 16.967,-81.993 46.819,-110.089 13.236,-12.456 21.952,-16.845 37.88,-24.135 -4.521,-13.8187 -7.104,-21.1548 -19.99,-29.2186 0.956,-1.3561 1.359,-2.736 1.816,-4.3058 12.725,4.6527 19.71,19.5434 22.514,31.8134 21.306,-4.844 33.535,-5.961 55.762,0 z m 18.057,50.888 c -45.05,5.592 -36.781,72.067 8.017,67.599 7.254,-0.058 15.114,-3.753 20.196,-8.883 22.156,-22.365 2.197,-61.35 -28.213,-58.716 z m -97.409,1.748 c -44.605,5.459 -36.464,70.073 7.423,65.851 17.736,-2.134 31.158,-18.655 28.88,-36.565 -2.18,-17.132 -18.964,-31.704 -36.303,-29.286 z m 4.785,98.579 c 0.12,2.842 0.14,5.79 0.627,8.596 2.455,18.131 18.649,18.999 25.104,3.286 0.706,-1.324 1.225,-2.76 1.791,-4.149 h -2.86 c -5.265,-2.326 -13.534,-3.308 -19.844,-5.746 -1.621,-0.509 -3.245,-1.328 -4.818,-1.987 z m 102.757,-3.864 c -8.961,4.24 -17.646,7.44 -27.348,9.583 3.446,7.328 13.352,19.548 21.554,11.661 5.194,-4.996 5.718,-14.538 5.794,-21.244 z M 245.19,217.284 c -15.956,4.827 -6.835,22.031 8.567,18.094 12.691,-3.333 11.207,-18.982 -8.567,-18.094 z"
         id="path1077" /><path
         fill="#e8cecc"
         transform="scale(2)"
         d="m 189.549,343.78 c 5.058,-0.33 10.944,3.29 5.848,8.014 -7.352,1.449 -9.957,-5.014 -5.848,-8.014 z"
         id="path1079" /><path
         fill="#f7dcb0"
         transform="scale(2)"
         d="m 161.073,219.159 c 4.337,4.167 -6.405,12.479 14.823,15.444 -4.013,0.204 -8.744,0.366 -12.351,2.315 -1.554,2.774 -2.044,5.813 -2.472,8.92 l -0.307,-0.004 c -3.428,-11.342 -0.004,-9.834 -14.126,-11.231 3.945,-0.718 8.314,-1.13 11.795,-3.235 2.096,-3.706 2.211,-8.066 2.638,-12.209 z"
         id="path1081" /><path
         fill="#f7dcb0"
         transform="scale(2)"
         d="m 340.486,221.484 c 4.832,9.07 -5.249,11.12 15.08,15.434 -11.836,0.664 -13.961,2.049 -14.073,14.25 l -0.063,0.124 c -4.166,-6.538 3.938,-14.275 -14.772,-14.374 10.597,-2.869 13.895,-2.477 13.828,-15.434 z"
         id="path1083" /><path
         fill="#af4948"
         transform="scale(2)"
         d="m 245.19,217.284 c 19.774,-0.888 21.258,14.761 8.567,18.094 -15.402,3.937 -24.523,-13.267 -8.567,-18.094 z m 3.988,1.049 c -9.242,1.367 -4.491,8.537 2.858,8.114 9.903,-2.087 4.293,-8.296 -2.858,-8.114 z"
         id="path1085" /><path
         fill="#f6f2f2"
         transform="scale(2)"
         d="m 200.922,263.171 c 1.573,0.659 3.197,1.478 4.818,1.987 6.31,2.438 14.579,3.42 19.844,5.746 h 2.86 c -0.566,1.389 -1.085,2.825 -1.791,4.149 -6.455,15.713 -22.649,14.845 -25.104,-3.286 -0.487,-2.806 -0.507,-5.754 -0.627,-8.596 z m 24.662,7.733 c -0.9,1.646 -0.604,3.127 1.069,4.149 0.706,-1.324 1.225,-2.76 1.791,-4.149 z"
         id="path1087" /><path
         fill="#af4948"
         transform="scale(2)"
         d="m 200.922,263.171 c -4.791,-3.235 -19.542,-8.474 -20.209,-13.841 1.553,-3.958 7.417,2.203 9.059,3.316 31.366,21.247 85.972,20.327 117.825,-0.048 2.545,-1.628 6.17,-5.175 8.828,-6.046 8.336,0.936 -11.807,12.238 -12.746,12.755 -8.961,4.24 -17.646,7.44 -27.348,9.583 -17.189,3.062 -30.465,3.351 -47.887,2.014 h -2.86 c -5.265,-2.326 -13.534,-3.308 -19.844,-5.746 -1.621,-0.509 -3.245,-1.328 -4.818,-1.987 z"
         id="path1089" /><path
         fill="#e8cecc"
         transform="scale(2)"
         d="m 159.575,306.776 c 16.35,-0.99 37.714,29.175 19.616,35.056 -16.613,2.075 -38.429,-30.314 -19.616,-35.056 z"
         id="path1091" /><path
         fill="#b0dfeb"
         transform="scale(2)"
         d="m 196.137,164.592 c 17.339,-2.418 34.123,12.154 36.303,29.286 2.278,17.91 -11.144,34.431 -28.88,36.565 -43.887,4.222 -52.028,-60.392 -7.423,-65.851 z m -8.542,17.556 c -2.66,2.393 -2.512,3.624 -4.026,6.45 l -0.101,-0.088 c -3.279,1.225 -2.361,13.988 -1.318,17.148 6.696,20.289 35.1,21.078 44.07,2.532 9.029,-18.667 -11.344,-39.007 -30,-31.856 -2.082,0.798 -8.242,3.445 -8.625,5.814 z"
         id="path1093" /><path
         fill="#2d444d"
         transform="scale(2)"
         d="m 187.595,182.148 c 0.383,-2.369 6.543,-5.016 8.625,-5.814 18.656,-7.151 39.029,13.189 30,31.856 -8.97,18.546 -37.374,17.757 -44.07,-2.532 -1.043,-3.16 -1.961,-15.923 1.318,-17.148 l 0.101,0.088 c 1.514,-2.826 1.366,-4.057 4.026,-6.45 z m 17.147,5.37 c -4.852,2.664 -3.946,8.821 2.271,8.429 5.189,-2.567 3.893,-8.77 -2.271,-8.429 z"
         id="path1095" /><path
         fill="#f6f2f2"
         transform="scale(2)"
         d="m 187.595,182.148 c 7.65,-3.515 15.909,2.396 12.555,10.593 -3.674,8.982 -17.866,5.848 -16.581,-4.143 1.514,-2.826 1.366,-4.057 4.026,-6.45 z"
         id="path1097" /><path
         fill="#b0dfeb"
         transform="scale(2)"
         d="m 293.546,162.844 c 30.41,-2.634 50.369,36.351 28.213,58.716 -5.082,5.13 -12.942,8.825 -20.196,8.883 -44.798,4.468 -53.067,-62.007 -8.017,-67.599 z m 4.856,12.006 c -30.166,2.975 -27.079,49.439 5.277,46.634 30.623,-5.34 23.287,-48.858 -5.277,-46.634 z"
         id="path1099" /><path
         fill="#2d444d"
         transform="scale(2)"
         d="m 298.402,174.85 c 28.564,-2.224 35.9,41.294 5.277,46.634 -32.356,2.805 -35.443,-43.659 -5.277,-46.634 z m -10.52,7.298 c -16.04,-0.264 -3.504,29.506 8.702,11.063 1.441,2.654 4.053,3.832 6.772,2.048 3.517,-2.307 -0.837,-11.625 -6.304,-4.826 -0.727,-1.146 -1.535,-10.988 -9.17,-8.285 z"
         id="path1101" /><path
         id="path1077-9"
         style="fill:#e29494;fill-opacity:1;stroke-width:2"
         d="m 266.43446,978.65759 c -22.2894,12.18026 -39.0118,42.32791 -41.961,67.70701 h 10.1055 c 6.3311,-25.4204 16.4191,-41.1543 35.4922,-59.22459 -2.012,-2.60699 -2.8307,-5.35502 -3.6367,-8.48242 z"
         sodipodi:nodetypes="ccccc" /><path
         id="path1077-9-6"
         style="fill:#e29494;fill-opacity:1;stroke-width:2"
         d="m 1776.8756,1324.3914 c -22.2894,12.1803 -39.0118,42.3279 -41.961,67.707 h 10.1055 c 6.3311,-25.4204 16.4191,-41.1543 35.4922,-59.2246 -2.012,-2.607 -2.8307,-5.355 -3.6367,-8.4824 z m -198.7403,5.0781 c -0.914,3.1396 -1.7208,5.8992 -3.6328,8.6113 24.2347,15.1656 30.2956,29.435 38.4453,54.0176 h 9.9082 c -5.7517,-24.349 -19.6052,-53.4458 -44.7207,-62.6289 z"
         sodipodi:nodetypes="cccccccccc" /><path
         id="path1077-9-1"
         style="fill:#e29494;fill-opacity:1;stroke-width:2"
         d="m 386.75594,1051.7204 c -24.90394,-4.9967 -57.09262,7.3488 -75.66518,24.8945 l 7.74124,6.4957 c 21.18983,-15.4036 39.03123,-20.972 65.25753,-22.5548 0.1344,-3.2902 1.27368,-5.9217 2.66641,-8.8354 z"
         sodipodi:nodetypes="ccccc" /></g><g
       id="g2936"
       transform="matrix(0.26458333,0,0,0.26458333,246.98432,194.00685)"
       inkscape:export-filename="full.png"
       inkscape:export-xdpi="96"
       inkscape:export-ydpi="96"><path
         fill="#e29494"
         transform="scale(2)"
         d="m 90.9499,190.169 c 1.211,0.865 2.1374,2.715 3.1823,3.858 1.8919,0.783 3.8537,1.059 5.8621,1.38 -1.443,1.463 -3.216,2.491 -4.5647,4.073 -0.5401,1.716 -0.1022,4.286 -1.2974,5.574 -5.282,-3.302 -2.1198,-4.09 -9.7259,-5.574 2.784,-3.8 4.0238,-5.19 6.5436,-9.311 z"
         id="path2828"
         style="fill:#f7dcb0;fill-opacity:1" /><path
         fill="#e29494"
         transform="scale(2)"
         d="m 393.616,148.666 c 4.595,4.105 0.456,2.473 8.495,7.124 l 0.306,0.179 c -4.392,3.412 -5.318,3.287 -7.115,8.985 -3.535,-2.932 -2.065,-4.596 -8.829,-7.162 4.165,-4.102 4.965,-2.792 7.143,-9.126 z"
         id="path2830"
         style="fill:#f7dcb0;fill-opacity:1" /><path
         fill="#e29494"
         transform="scale(2)"
         d="m 359.003,70.9263 c 3.531,0.2653 3.522,5.2775 4.468,7.8437 3.714,10.0854 11.489,5.6651 15.718,10.751 0.456,2.2284 -5.388,4.9851 -7.043,6.2546 -8.066,6.1864 -5.872,19.0704 -10.581,20.7384 -3.648,-3.188 -3.569,-12.275 -8.251,-17.1897 -3.88,-4.0727 -10.808,-4.3482 -12.111,-6.5236 -0.033,-3.3387 7.937,-5.6363 10.32,-7.7047 4.996,-4.3363 4.146,-9.9247 7.48,-14.1697 z"
         id="path2832"
         style="fill:#f7dcb0;fill-opacity:1" /><path
         fill="#468d9b"
         transform="scale(2)"
         d="m 61.3218,333.852 c -1.3664,-2.911 -13.7942,-23.337 -0.5465,-21.152 5.4777,0.904 8.4732,7.749 11.5155,11.728 -6.3986,9.12 -7.7902,18.079 0,26.57 -10.1374,13.089 -30.7426,5.785 -10.969,-5.963 -5.0123,-1.145 -15.4412,-2.565 -17.7131,-8.034 -1.2598,-3.033 0.9042,-5.464 3.7103,-6.382 4.9608,-1.625 9.6756,1.115 14.0028,3.233 z"
         id="path2834" /><path
         fill="#468d9b"
         transform="scale(2)"
         d="m 439.493,324.428 c 3.343,-5.516 13.962,-19.766 18.352,-7.152 -1.191,6.481 -5.07,10.613 -6.324,16.576 5.499,-3.142 20.803,-5.822 17.725,3.064 -1.995,5.758 -12.925,6.399 -17.725,8.119 3.073,2.427 7.753,4.762 8.374,9.058 0.948,6.552 -14.707,5.09 -19.24,-3.095 0.256,-0.701 0.839,-1.384 1.248,-2.011 5.002,-7.659 2.363,-17.443 -2.41,-24.559 z"
         id="path2836" /><path
         fill="#5ab4c5"
         transform="scale(2)"
         d="m 394.514,374.653 c 6.194,-4.351 13.347,-8.556 21.215,-7.157 12.003,2.134 16.892,14.528 14.783,25.472 -5.899,30.606 -61.176,54.094 -89.032,48.469 -15.349,-3.099 -22.432,-14.567 -9.452,-26.812 5.061,-2.48 10.637,-4.166 15.809,-6.486 18.61,-8.349 33.174,-18.457 46.677,-33.486 z m 21.048,11.519 c -4.403,1.541 -3.868,7.173 1.191,7.105 3.985,-2.168 4.167,-7.41 -1.191,-7.105 z"
         id="path2840" /><path
         fill="#fdf4f3"
         transform="scale(2)"
         d="m 412.11,371.769 c 8.766,-0.4 9.9,8.726 2.563,11.807 -8.645,1.182 -10.09,-9.097 -2.563,-11.807 z"
         id="path2842" /><path
         fill="#5ab4c5"
         transform="scale(2)"
         d="m 173.842,412.833 c -0.158,45.317 -93.6945,11.405 -106.0829,-25.564 -8.202,-24.475 18.1719,-36.825 39.4539,-25.792 2.752,4.617 5.064,9.442 8.249,13.796 15.235,20.824 35.85,28.715 58.38,37.56 z m -94.5232,-45.03 c -4.3425,3.299 -0.1883,6.507 3.8076,6.193 3.1327,-4.222 0.474,-6.593 -3.8076,-6.193 z"
         id="path2844" /><path
         fill="#fdf4f3"
         transform="scale(2)"
         d="m 88.5816,361.477 c 7.7409,-0.778 7.2551,6.926 2.3683,10.292 -6.6184,-0.691 -8.5734,-7.504 -2.3683,-10.292 z"
         id="path2846" /><path
         fill="#e29494"
         transform="scale(2)"
         d="m 248.718,117.642 c 73.192,-3.742 124.873,69.063 141.66,132.582 2.239,8.476 3.188,22.944 6.607,29.27 2.372,4.391 18.274,17.269 22.996,21.825 6.072,5.86 11.962,12.546 16.777,19.481 l 2.735,3.628 c 4.773,7.116 7.412,16.9 2.41,24.559 -0.409,0.627 -0.992,1.31 -1.248,2.011 -9.486,11.663 -26.934,0.155 -34.724,-7.707 -1.741,10.847 -4.825,22.37 -11.417,31.362 -13.503,15.029 -28.067,25.137 -46.677,33.486 -5.172,2.32 -10.748,4.006 -15.809,6.486 -51.384,14.593 -107.135,14.26 -158.186,-1.792 -22.53,-8.845 -43.145,-16.736 -58.38,-37.56 -3.185,-4.354 -5.497,-9.179 -8.249,-13.796 -1.816,-4.945 -3.735,-9.963 -4.775,-15.138 -8.9821,7.541 -19.9789,13.169 -30.1472,4.659 -7.7902,-8.491 -6.3986,-17.45 0,-26.57 h 0.4363 c 5.0452,-9.159 19.13,-21.718 27.4459,-27.418 3.367,-2.309 7.124,-4.031 10.456,-6.392 l 0.296,-0.212 c 0.941,-3.644 1.326,-7.528 1.926,-11.244 5.759,-35.671 16.211,-69.906 36.869,-100.02 23.701,-34.549 47.98911,-54.64089 89.545,-61.5 47.81792,2.93453 -35.61046,0.90054 9.453,0 z m 47.737,114.757 c 8.048,2.748 14.899,2.543 22.78,0 0.995,-0.124 1.878,-0.448 2.818,-0.778 8.828,-7.493 16.655,-8.714 18.298,-24.172 2.99,-28.122 -30.969,-45.209 -52.042,-27.827 -18.684,15.41 -13.206,43.761 8.146,52.777 z m -17.578,0 c -3.032,0.736 -5.322,2.706 -8.163,3.822 -11.841,4.655 -27.677,4.201 -39.689,-0.257 -4.017,-1.491 -8.1,-6.086 -11.361,-0.765 -4.369,7.129 1.774,16.021 6.9,20.724 15.943,12.709 40.638,10.157 53.207,-6.022 3.576,-4.603 10.181,-17.622 -0.894,-17.502 z m -66.41,-98.812 c -14.93,1.902 -30.629,17.939 -8.993,16.658 7.458,-1.277 17.109,-4.495 19.164,-12.705 -1.974,-4.409 -5.892,-4.465 -10.171,-3.953 z m -27.933,16.658 c -4.811,2.239 -4.117,7.628 1.75,7.547 1.943,-0.839 2.648,-2.036 3.458,-3.929 -1.303,-2.593 -2.263,-3.745 -5.208,-3.618 z"
         id="path2848"
         sodipodi:nodetypes="cccccccccccccccccccccccccccccccccccscsccccccccc" /><path
         fill="#d73e46"
         transform="scale(2)"
         d="m 72.7271,324.428 0.8284,0.276 c -0.0172,1.047 -1.077,2.737 -1.4507,3.784 -8.1755,22.901 15.136,30.44 27.8895,12.877 0.0507,-4.199 -0.84,-9.008 0.0847,-13.081 l 0.32,-0.24 0.309,0.234 c 0.42,4.036 0.497,7.965 1.73,11.862 -0.016,1.845 0.418,4.463 0,6.199 -8.9821,7.541 -19.9789,13.169 -30.1472,4.659 -7.7902,-8.491 -6.3986,-17.45 0,-26.57 z"
         id="path2862" /><path
         fill="#d73e46"
         transform="scale(2)"
         d="m 406.778,337.175 c 7.566,6.951 21.669,21.743 31.127,10.119 8.372,-10.29 -4.31,-22.898 -1.147,-26.494 l 2.735,3.628 c 4.773,7.116 7.412,16.9 2.41,24.559 -0.409,0.627 -0.992,1.31 -1.248,2.011 -9.486,11.663 -26.934,0.155 -34.724,-7.707 0.04,-2.054 0.267,-4.141 0.847,-6.116 z"
         id="path2864" /><path
         fill="#fdf4f3"
         transform="scale(2)"
         d="m 322.053,231.621 c 7.428,-2.078 15.243,-2.061 22.126,1.785 22.051,12.32 -26.307,27.973 -30.303,6.775 0.862,-3.487 2.628,-5.615 5.359,-7.782 0.995,-0.124 1.878,-0.448 2.818,-0.778 z"
         id="path2866" /><path
         fill="#942e2f"
         transform="scale(2)"
         d="m 278.877,232.399 c 11.075,-0.12 4.47,12.899 0.894,17.502 -12.569,16.179 -37.264,18.731 -53.207,6.022 -5.126,-4.703 -11.269,-13.595 -6.9,-20.724 3.261,-5.321 7.344,-0.726 11.361,0.765 12.012,4.458 27.848,4.912 39.689,0.257 2.841,-1.116 5.131,-3.086 8.163,-3.822 z m -12.113,7.782 c -2.789,0.551 -5.73,0.955 -8.431,1.844 -0.866,1.922 1.614,4.57 3.16,5.27 5.321,0.9 7.055,-2.442 8.241,-7.114 -0.974,-0.008 -2.002,-0.087 -2.97,0 z m -29.986,0.72 c 0.191,5.325 5.65,7.896 10.197,5.084 3.135,-5.975 -6.033,-4.376 -10.197,-5.084 z"
         id="path2868" /><path
         fill="#fdf4f3"
         transform="scale(2)"
         d="m 303.241,376.761 c 2.456,-0.094 2.799,0.26 1.84,2.507 -2.027,0.055 -2.392,-0.679 -1.84,-2.507 z"
         id="path2874" /><path
         fill="#fdf4f3"
         transform="scale(2)"
         d="m 313.041,360.283 c 9.657,-0.624 5.964,10.442 -0.801,13.713 -8.162,1.123 -6.555,-10.485 0.801,-13.713 z"
         id="path2876" /><path
         fill="#5ab4c5"
         transform="scale(2)"
         d="m 180.809,228.566 c -22.765,-18.392 -13.172,-51.813 14.422,-54.383 26.83,-2.5 43.969,28.275 26.375,49.246 -2.485,2.963 -5.456,5.863 -9.139,7.244 -7.632,4.429 -13.729,3.246 -22.137,3.515 -2.561,-2.408 -6.435,-3.992 -9.521,-5.622 z"
         id="path2878" /><path
         fill="#d6e5e5"
         transform="scale(2)"
         d="m 195.389,177.339 c 30.365,-4.732 45.118,44.398 6.667,53.334 -36.825,1.759 -41.104,-48.785 -6.667,-53.334 z"
         id="path2880" /><path
         fill="#203f46"
         transform="scale(2)"
         d="m 206.22,187.792 c 1.566,-0.478 3.142,-1.032 4.759,-1.295 6.257,2.941 10.4,9.082 5.451,15.447 1.332,14.088 -9.946,25.065 -24.329,19.756 -21.418,-7.905 -8.174,-42.933 14.119,-33.908 z"
         id="path2882" /><path
         fill="#fdf4f3"
         transform="scale(2)"
         d="m 189.742,212.042 c 5.042,-0.518 7.097,3.855 2.615,6.312 -5.068,1.058 -6.258,-3.664 -2.615,-6.312 z"
         id="path2884" /><path
         fill="#fdf4f3"
         transform="scale(2)"
         d="m 206.22,187.792 c 1.566,-0.478 3.142,-1.032 4.759,-1.295 6.257,2.941 10.4,9.082 5.451,15.447 -11.306,8.691 -21.785,-6.093 -10.21,-14.152 z"
         id="path2886" /><path
         fill="#5ab4c5"
         transform="scale(2)"
         d="m 296.455,232.399 c -21.352,-9.016 -26.83,-37.367 -8.146,-52.777 21.073,-17.382 55.032,-0.295 52.042,27.827 -1.643,15.458 -9.47,16.679 -18.298,24.172 -0.94,0.33 -1.823,0.654 -2.818,0.778 -7.881,2.543 -14.732,2.748 -22.78,0 z m 11.311,-55.9 c -37.434,0.248 -34.984,56.731 2.777,54.174 14.449,-0.265 26.77,-12.821 26.521,-27.339 -0.258,-14.974 -14.21,-28.056 -29.298,-26.835 z"
         id="path2888" /><path
         fill="#d6e5e5"
         transform="scale(2)"
         d="m 307.766,176.499 c 15.088,-1.221 29.04,11.861 29.298,26.835 0.249,14.518 -12.072,27.074 -26.521,27.339 -37.761,2.557 -40.211,-53.926 -2.777,-54.174 z m 7.155,11.293 c -14.881,-6.699 -30.176,8.658 -24.039,23.378 0.703,1.687 2.303,4.807 3.911,5.67 l 0.134,-0.03 c 1.247,0.725 2.275,1.801 3.49,2.601 6.826,7.236 28.055,0.572 27.276,-16.7 8.592,-8.707 -0.821,-21.659 -10.772,-14.919 z"
         id="path2890" /><path
         fill="#203f46"
         transform="scale(2)"
         d="m 314.921,187.792 c 9.951,-6.74 19.364,6.212 10.772,14.919 0.779,17.272 -20.45,23.936 -27.276,16.7 -1.215,-0.8 -2.243,-1.876 -3.49,-2.601 l -0.134,0.03 c -1.608,-0.863 -3.208,-3.983 -3.911,-5.67 -6.137,-14.72 9.158,-30.077 24.039,-23.378 z m -19.994,29.018 c 1.247,0.725 2.275,1.801 3.49,2.601 10.723,-2.068 -2.723,-13.656 -3.49,-2.601 z"
         id="path2892" /><path
         fill="#fdf4f3"
         transform="scale(2)"
         d="m 314.921,187.792 c 9.951,-6.74 19.364,6.212 10.772,14.919 -12.564,5.358 -19.284,-4.274 -10.772,-14.919 z"
         id="path2894" /></g><path
       fill="#e46766"
       d="m 404.47624,243.17131 c -0.0746,-2.74547 1.61343,-4.92289 4.52967,-4.8514 8.03381,0.19696 3.02578,13.56688 -3.56764,7.09586 -0.53234,-0.68977 -0.74877,-1.417 -0.96203,-2.24446 z"
       id="path1055-4"
       style="stroke-width:0.529167" /><path
       fill="#e46766"
       d="m 346.8551,245.05128 c -0.0746,-2.74547 1.61343,-4.92289 4.52967,-4.8514 8.03381,0.19696 3.02578,13.56688 -3.56764,7.09586 -0.53234,-0.68977 -0.74877,-1.417 -0.96203,-2.24446 z"
       id="path1055-3"
       style="stroke-width:0.529167" /></g></svg>
