<svg width="72" height="75" viewBox="0 0 72 75" fill="none" xmlns="http://www.w3.org/2000/svg">
<path d="M50.5713 57.3973L50.566 57.4015C49.6726 58.1097 48.5464 58.5 47.3643 58.5H45.3029C46.9348 57.7923 48.2654 56.3649 48.5922 54.4224L48.5924 54.4212C49.1731 50.9562 46.4526 48 43.109 48H25.3322C21.8794 48 18.5401 49.1709 15.8528 51.3125L15.8517 51.3134L11.2326 55H5.77768C3.72509 55 2 56.6535 2 58.75V69.25C2 71.3465 3.72509 73 5.77768 73H45.4199C47.4741 73 49.477 72.3166 51.0999 71.0413L51.1018 71.0398L67.8969 57.8086C67.8974 57.8082 67.8979 57.8078 67.8984 57.8074C70.5516 55.7267 70.7608 51.7208 68.137 49.3917C65.9993 47.4858 62.8617 47.7101 60.8347 49.3166C60.8335 49.3176 60.8323 49.3186 60.831 49.3195L50.5713 57.3973Z" stroke="#333333" stroke-width="4"/>
<path d="M36.4897 2L48.1634 13.4262C50.4721 15.6844 52.0446 18.5621 52.6822 21.6952C53.3197 24.8283 52.9936 28.0761 51.745 31.0278C50.4965 33.9795 48.3817 36.5024 45.668 38.2775C42.9544 40.0525 39.7639 41 36.5 41C33.2361 41 30.0456 40.0525 27.332 38.2775C24.6183 36.5024 22.5035 33.9795 21.255 31.0278C20.0064 28.0761 19.6803 24.8283 20.3178 21.6952C20.9554 18.5621 22.5279 15.6844 24.8366 13.4262L36.4897 2Z" stroke="#333333" stroke-width="4" stroke-linecap="round" stroke-linejoin="round"/>
<path d="M42.8434 21.1493C42.4768 20.7849 42.0417 20.4959 41.5627 20.2987C41.0837 20.1015 40.5704 20 40.0519 20C39.5335 20 39.0201 20.1015 38.5411 20.2987C38.0621 20.4959 37.627 20.7849 37.2605 21.1493L36.4998 21.9051L35.7392 21.1493C34.9988 20.4137 33.9947 20.0004 32.9477 20.0004C31.9007 20.0004 30.8966 20.4137 30.1563 21.1493C29.4159 21.8849 29 22.8827 29 23.923C29 24.9634 29.4159 25.9611 30.1563 26.6967L30.9169 27.4526L36.4998 33L42.0827 27.4526L42.8434 26.6967C43.21 26.3325 43.5009 25.9001 43.6994 25.4242C43.8979 24.9483 44 24.4382 44 23.923C44 23.4079 43.8979 22.8977 43.6994 22.4218C43.5009 21.9459 43.21 21.5135 42.8434 21.1493Z" stroke="#27B5C4" stroke-width="3" stroke-linecap="round" stroke-linejoin="round"/>
</svg>
