<svg width="36" height="37" viewBox="0 0 36 37" fill="none" xmlns="http://www.w3.org/2000/svg">
<path fill-rule="evenodd" clip-rule="evenodd" d="M19.5 3.5C19.5 2.67157 18.8284 2 18 2C17.1716 2 16.5 2.67157 16.5 3.5V9.5C16.5 10.3284 17.1716 11 18 11C18.8284 11 19.5 10.3284 19.5 9.5V3.5ZM19.5 27.5C19.5 26.6716 18.8284 26 18 26C17.1716 26 16.5 26.6716 16.5 27.5V33.5C16.5 34.3284 17.1716 35 18 35C18.8284 35 19.5 34.3284 19.5 33.5V27.5ZM6.3346 6.83433C6.92039 6.24854 7.87014 6.24854 8.45592 6.83433L12.7009 11.0793C13.2867 11.6651 13.2867 12.6149 12.7009 13.2007C12.1151 13.7864 11.1654 13.7864 10.5796 13.2007L6.3346 8.95565C5.74882 8.36986 5.74882 7.42012 6.3346 6.83433ZM25.421 23.7993C24.8352 23.2135 23.8855 23.2135 23.2997 23.7993C22.7139 24.3851 22.7139 25.3349 23.2997 25.9206L27.5447 30.1656C28.1305 30.7514 29.0802 30.7514 29.666 30.1656C30.2518 29.5799 30.2518 28.6301 29.666 28.0443L25.421 23.7993ZM1.5 18.5C1.5 17.6716 2.17157 17 3 17H9C9.82843 17 10.5 17.6716 10.5 18.5C10.5 19.3284 9.82843 20 9 20H3C2.17157 20 1.5 19.3284 1.5 18.5ZM27 17C26.1716 17 25.5 17.6716 25.5 18.5C25.5 19.3284 26.1716 20 27 20H33C33.8284 20 34.5 19.3284 34.5 18.5C34.5 17.6716 33.8284 17 33 17H27ZM12.7009 23.7993C13.2867 24.3851 13.2867 25.3349 12.7009 25.9206L8.45592 30.1656C7.87014 30.7514 6.92039 30.7514 6.3346 30.1656C5.74882 29.5799 5.74882 28.6301 6.3346 28.0443L10.5796 23.7993C11.1654 23.2135 12.1151 23.2135 12.7009 23.7993ZM29.666 8.95565C30.2518 8.36986 30.2518 7.42011 29.666 6.83433C29.0802 6.24854 28.1305 6.24854 27.5447 6.83433L23.2997 11.0793C22.7139 11.6651 22.7139 12.6149 23.2997 13.2007C23.8855 13.7864 24.8352 13.7864 25.421 13.2007L29.666 8.95565Z" fill="#7D7D7D"/>
</svg>
