<?xml version="1.0" encoding="UTF-8" standalone="no"?>
<svg
   width="663.87439"
   height="740.36053"
   version="1.1"
   id="svg186"
   sodipodi:docname="normal.svg"
   inkscape:export-filename="normal.svg"
   inkscape:export-xdpi="96"
   inkscape:export-ydpi="96"
   xmlns:inkscape="http://www.inkscape.org/namespaces/inkscape"
   xmlns:sodipodi="http://sodipodi.sourceforge.net/DTD/sodipodi-0.dtd"
   xmlns="http://www.w3.org/2000/svg"
   xmlns:svg="http://www.w3.org/2000/svg">
  <sodipodi:namedview
     id="namedview161"
     pagecolor="#ffffff"
     bordercolor="#000000"
     borderopacity="0.25"
     inkscape:showpageshadow="2"
     inkscape:pageopacity="0.0"
     inkscape:pagecheckerboard="0"
     inkscape:deskcolor="#d1d1d1"
     showgrid="false" />
  <defs
     id="defs190" />
  <path
     style="fill:#fefefe;stroke-width:5.4686"
     id="path436"
     sodipodi:type="arc"
     sodipodi:cx="343.54959"
     sodipodi:cy="338.55411"
     sodipodi:rx="197.52454"
     sodipodi:ry="217.3891"
     sodipodi:start="0"
     sodipodi:end="6.2486425"
     sodipodi:open="true"
     sodipodi:arc-type="arc"
     d="M 541.07413,338.55411 A 197.52454,217.3891 0 0 1 345.25533,555.9351 197.52454,217.3891 0 0 1 146.05452,342.30854 197.52454,217.3891 0 0 1 338.43287,121.23796 197.52454,217.3891 0 0 1 540.9563,331.04637" />
  <path
     fill="#f7dcb0"
     d="m 24.747,341.40887 c 6.6834,8.59 -1.1546,12.19 20.1176,22.01 -11.7296,6.976 -14.937,7.978 -20.1176,21.504 l -0.364,0.43 c -2.404,-1.952 -3.0514,-7.65 -4.7796,-10.51 -3.5194,-5.822 -9.77,-7.13 -14.5444,-11.058 5.8786,-7.794 10.4714,-3.05 19.688,-22.376 z"
     id="path132"
     style="stroke-width:2" />
  <path
     fill="#f7dcb0"
     d="m 644.0104,268.44887 c 5.35,5.302 -1.016,15.442 19.864,26.114 -11.808,7.522 -14.61,11.718 -19.864,24.468 -4.236,-12.372 -8.174,-19.502 -21.392,-24.468 12.804,-4.478 17.604,-13.548 21.392,-26.114 z"
     id="path134"
     style="stroke-width:2" />
  <path
     fill="#e46766"
     d="m 236.3624,32.031668 c -6.722,4.0344 -13.896,7.1848 -21.504,2.9028 -27.042,-15.2198 19.146,-51.0444 25.136,-11.5144 -0.914,3.1396 -1.72,5.8994 -3.632,8.6116 z"
     id="path136"
     style="stroke-width:2" />
  <path
     fill="#e46766"
     d="m 438.7364,18.342468 c -0.282,-10.3766002 6.098,-18.60620022 17.12,-18.33600022 30.364,0.7444 11.436,51.27640022 -13.484,26.81900022 -2.012,-2.607 -2.83,-5.3556 -3.636,-8.483 z"
     id="path138"
     style="stroke-width:2" />
  <path
     fill="#f7dcb0"
     d="m 32.9668,164.91287 c 0.6602,1.034 0.6978,2.118 0.9744,3.302 4.8486,20.78 13.2592,25.078 30.3532,35.644 -23.5946,14.05 -19.151,8.386 -31.3276,36.472 -9.8258,-12.602 -1.6054,-26.282 -32.9668,-36.472 22.5072,-16.198 20.7878,-6.874 32.9668,-38.946 z"
     id="path140"
     style="stroke-width:2" />
  <path
     fill="#f7dcb0"
     d="m 582.5464,50.494868 c 11.004,13.792 -1.9,32.834 40.072,50.210002 -26.19,10.134 -32.858,20.942 -40.072,48.552 l -0.536,-0.06 c -1.088,-2.262 -1.388,-5.12 -2.118,-7.54 -5.706,-18.924 -17.608,-34.14 -36.806,-40.952 25.104,-13.610002 29.974,-22.142002 39.46,-50.210002 z"
     id="path142"
     style="stroke-width:2" />
  <path
     fill="#5ab4c5"
     d="m 577.8744,473.97487 c 1.42,0.772 38.62,41.096 42.268,46.486 5.306,15.428 14.682,55.162 12.91,68.714 -0.34,2.6 -1.782,8.52 -5.524,6.486 -8.936,-4.862 -9.202,-27.5 -14.958,-30.516 -4.664,2.194 -2.868,33.304 -8.544,40.266 -1.78,2.182 -6.218,2.746 -8.16,0.498 -7.214,-8.346 3.672,-33.992 -1.248,-39.424 l -1.054,-0.028 c -5.46,3.254 -23.08,37.428 -31.452,28.44 -7.168,-7.694 23.23,-32.676 17.926,-38.974 -8.156,-2.368 -29.034,10.794 -30.806,-4.342 -0.988,-8.444 9.11,-7.304 14.44,-9.31 23.136,-8.714 17.1,-49.934 14.202,-68.296 z"
     id="path144"
     style="stroke-width:2" />
  <path
     fill="#5ab4c5"
     d="m 60.0204,520.46087 c 12.418,-10.012 37.888,-36.22 49.272,-41.42 -3.444,21.264 -6.684,46.36 12.194,61.364 3.24,2.576 26.618,16.122 19.514,21.268 -7.734,1.228 -25.816,-10.874 -30.942,-7.254 -5.166,9.186 23.108,31.064 18.5,41.05 -6.822,14.784 -35.87,-43.46 -35.954,-23.966 -0.04,9.084 5.758,30.992 0.208,38.1 -7.81,2.248 -15.81,-34.08 -16.926,-40.152 -3.662,-19.922 -11.812,29.148 -21.12,26.884 -5.87,-5.384 5.426,-60.304 5.254,-75.874 z"
     id="path146"
     style="stroke-width:2" />
  <path
     fill="#5ab4c5"
     d="m 219.0664,602.08287 c 1.31,0.644 2.682,1.248 3.954,1.96 25.116,10.07 44.352,13.61 69.562,20.12 v 3.938 c -3.968,10.402 -7.992,34.474 -9.93,46.358 16.222,8.976 32.91,23.28 40.554,40.586 17.06,38.618 -80.434,23.504 -96.966,16.142 -33.76,-15.03 -18.744,-103.318 -7.174,-129.104 z"
     id="path148"
     style="stroke-width:2" />
  <path
     fill="#b0dfeb"
     d="m 261.5044,696.08287 c 7.374,-0.192 8.54,5.592 2.81,9.034 -6.756,-0.212 -8.168,-5.698 -2.81,-9.034 z"
     id="path150"
     style="stroke-width:2" />
  <path
     fill="#b0dfeb"
     d="m 287.6284,700.82687 c 16.664,2.524 17.188,16.988 1.56,20.304 -16.024,-0.096 -17.136,-17.18 -1.56,-20.304 z"
     id="path152"
     style="stroke-width:2" />
  <path
     fill="#5ab4c5"
     d="m 391.7584,624.16287 c 31.99,-7.032 50.014,-10.944 80.288,-28.03 1.246,3.768 2.446,7.562 3.766,11.306 l 0.01,0.548 c 0.21,7.98 2.536,15.946 3.816,23.804 10.812,66.47 11.916,105.902 -65.326,108.25 -39.738,1.208 -79.724,-4.708 -33.38,-47.048 8.73,-7.976 18.862,-14.354 29.93,-18.534 -4.158,-13.114 -11.646,-25.648 -14.316,-39.09 -2.272,-3.694 -3.714,-7.022 -4.788,-11.206 z"
     id="path154"
     style="stroke-width:2" />
  <path
     fill="#b0dfeb"
     d="m 423.3144,700.82687 c 4.482,0.518 6.178,2.316 3.264,6.144 -4.316,0.378 -5.74,-2.35 -3.264,-6.144 z"
     id="path156"
     style="stroke-width:2" />
  <path
     fill="#b0dfeb"
     d="m 396.5464,700.82687 c 17.098,0.542 15.942,18.136 0,20.304 -16.676,-0.1 -16.718,-18.846 0,-20.304 z"
     id="path158"
     style="stroke-width:2" />
  <path
     fill="#e29494"
     d="m 396.5464,87.046868 c 2.626,-25.5754 19.616,-56.3686 42.19,-68.7044 0.806,3.1274 1.624,5.876 3.636,8.483 -20.238,19.174 -30.536,35.3184 -36.766,63.6434 108.146,38.672002 170.328,158.426002 175.23,268.326002 0.582,13.036 -0.616,26.202 0.226,39.18 23.256,26.044 73.686,83.996 71.286,115.322 -1.836,23.958 -20.508,14.382 -32.206,7.164 -3.648,-5.39 -40.848,-45.714 -42.268,-46.486 -2.852,-4.618 -6.022,-7.926 -10.032,-11.568 -8.184,57.718 -49.38,102.468 -95.796,133.726 -30.274,17.086 -48.298,20.998 -80.288,28.03 -26.066,8.134 -70.524,0.37 -99.176,0 -25.21,-6.51 -44.446,-10.05 -69.562,-20.12 -1.272,-0.712 -2.644,-1.316 -3.954,-1.96 -60.954,-28.494 -79.16,-72.912 -98.582,-132.024 -4.064,2.65 -7.688,5.63 -11.192,8.982 -11.384,5.2 -36.854,31.408 -49.272,41.42 -30.4926,17.198 -27.6782,-4.664 -18.9502,-29.106 13.5742,-38.014 36.4442,-63.778 65.7122,-90.44 0.7,-13.944 -0.282,-28.016 0.162,-41.998 2.576,-81.11 33.934,-163.986 93.638,-220.178 26.472,-24.912 43.904,-33.69 75.76,-48.270002 -9.042,-27.6374 -14.208,-42.3096 -39.98,-58.4372 1.912,-2.7122 2.718,-5.472 3.632,-8.6116 25.45,9.3054 39.42,39.0868 45.028,63.6268 42.612,-9.688 67.07,-11.922 111.524,0 z m 36.114,101.776002 c -90.1,11.184 -73.562,144.134 16.034,135.198 14.508,-0.116 30.228,-7.506 40.392,-17.766 44.312,-44.73 4.394,-122.7 -56.426,-117.432 z m -194.818,3.496 c -89.21,10.918 -72.928,140.146 14.846,131.702 35.472,-4.268 62.316,-37.31 57.76,-73.13 -4.36,-34.264 -37.928,-63.408 -72.606,-58.572 z m 9.57,197.158 c 0.24,5.684 0.28,11.58 1.254,17.192 4.91,36.262 37.298,37.998 50.208,6.572 1.412,-2.648 2.45,-5.52 3.582,-8.298 h -5.72 c -10.53,-4.652 -27.068,-6.616 -39.688,-11.492 -3.242,-1.018 -6.49,-2.656 -9.636,-3.974 z m 205.514,-7.728 c -17.922,8.48 -35.292,14.88 -54.696,19.166 6.892,14.656 26.704,39.096 43.108,23.322 10.388,-9.992 11.436,-29.076 11.588,-42.488 z m -116.978,-84.046 c -31.912,9.654 -13.67,44.062 17.134,36.188 25.382,-6.666 22.414,-37.964 -17.134,-36.188 z"
     id="path160"
     style="stroke-width:2" />
  <path
     fill="#e8cecc"
     d="m 224.6664,550.69487 c 10.116,-0.66 21.888,6.58 11.696,16.028 -14.704,2.898 -19.914,-10.028 -11.696,-16.028 z"
     id="path162"
     style="stroke-width:2" />
  <path
     fill="#f7dcb0"
     d="m 167.7144,301.45287 c 8.674,8.334 -12.81,24.958 29.646,30.888 -8.026,0.408 -17.488,0.732 -24.702,4.63 -3.108,5.548 -4.088,11.626 -4.944,17.84 l -0.614,-0.008 c -6.856,-22.684 -0.008,-19.668 -28.252,-22.462 7.89,-1.436 16.628,-2.26 23.59,-6.47 4.192,-7.412 4.422,-16.132 5.276,-24.418 z"
     id="path164"
     style="stroke-width:2" />
  <path
     fill="#f7dcb0"
     d="m 526.5404,306.10287 c 9.664,18.14 -10.498,22.24 30.16,30.868 -23.672,1.328 -27.922,4.098 -28.146,28.5 l -0.126,0.248 c -8.332,-13.076 7.876,-28.55 -29.544,-28.748 21.194,-5.738 27.79,-4.954 27.656,-30.868 z"
     id="path166"
     style="stroke-width:2" />
  <path
     fill="#af4948"
     d="m 335.9484,297.70287 c 39.548,-1.776 42.516,29.522 17.134,36.188 -30.804,7.874 -49.046,-26.534 -17.134,-36.188 z m 7.976,2.098 c -18.484,2.734 -8.982,17.074 5.716,16.228 19.806,-4.174 8.586,-16.592 -5.716,-16.228 z"
     id="path168"
     style="stroke-width:2" />
  <path
     fill="#f6f2f2"
     d="m 247.4124,389.47687 c 3.146,1.318 6.394,2.956 9.636,3.974 12.62,4.876 29.158,6.84 39.688,11.492 h 5.72 c -1.132,2.778 -2.17,5.65 -3.582,8.298 -12.91,31.426 -45.298,29.69 -50.208,-6.572 -0.974,-5.612 -1.014,-11.508 -1.254,-17.192 z m 49.324,15.466 c -1.8,3.292 -1.208,6.254 2.138,8.298 1.412,-2.648 2.45,-5.52 3.582,-8.298 z"
     id="path170"
     style="stroke-width:2" />
  <path
     fill="#af4948"
     d="m 247.4124,389.47687 c -9.582,-6.47 -39.084,-16.948 -40.418,-27.682 3.106,-7.916 14.834,4.406 18.118,6.632 62.732,42.494 171.944,40.654 235.65,-0.096 5.09,-3.256 12.34,-10.35 17.656,-12.092 16.672,1.872 -23.614,24.476 -25.492,25.51 -17.922,8.48 -35.292,14.88 -54.696,19.166 -34.378,6.124 -60.93,6.702 -95.774,4.028 h -5.72 c -10.53,-4.652 -27.068,-6.616 -39.688,-11.492 -3.242,-1.018 -6.49,-2.656 -9.636,-3.974 z"
     id="path172"
     style="stroke-width:2" />
  <path
     fill="#e8cecc"
     d="m 164.7184,476.68687 c 32.7,-1.98 75.428,58.35 39.232,70.112 -33.226,4.15 -76.858,-60.628 -39.232,-70.112 z"
     id="path174"
     style="stroke-width:2" />
  <path
     fill="#b0dfeb"
     d="m 237.8424,192.31887 c 34.678,-4.836 68.246,24.308 72.606,58.572 4.556,35.82 -22.288,68.862 -57.76,73.13 -87.774,8.444 -104.056,-120.784 -14.846,-131.702 z m -17.084,35.112 c -5.32,4.786 -5.024,7.248 -8.052,12.9 l -0.202,-0.176 c -6.558,2.45 -4.722,27.976 -2.636,34.296 13.392,40.578 70.2,42.156 88.14,5.064 18.058,-37.334 -22.688,-78.014 -60,-63.712 -4.164,1.596 -16.484,6.89 -17.25,11.628 z"
     id="path176"
     style="stroke-width:2" />
  <path
     fill="#2d444d"
     d="m 220.7584,227.43087 c 0.766,-4.738 13.086,-10.032 17.25,-11.628 37.312,-14.302 78.058,26.378 60,63.712 -17.94,37.092 -74.748,35.514 -88.14,-5.064 -2.086,-6.32 -3.922,-31.846 2.636,-34.296 l 0.202,0.176 c 3.028,-5.652 2.732,-8.114 8.052,-12.9 z m 34.294,10.74 c -9.704,5.328 -7.892,17.642 4.542,16.858 10.378,-5.134 7.786,-17.54 -4.542,-16.858 z"
     id="path178"
     style="stroke-width:2" />
  <path
     fill="#f6f2f2"
     d="m 220.7584,227.43087 c 15.3,-7.03 31.818,4.792 25.11,21.186 -7.348,17.964 -35.732,11.696 -33.162,-8.286 3.028,-5.652 2.732,-8.114 8.052,-12.9 z"
     id="path180"
     style="stroke-width:2" />
  <path
     fill="#b0dfeb"
     d="m 432.6604,188.82287 c 60.82,-5.268 100.738,72.702 56.426,117.432 -10.164,10.26 -25.884,17.65 -40.392,17.766 -89.596,8.936 -106.134,-124.014 -16.034,-135.198 z m 9.712,24.012 c -60.332,5.95 -54.158,98.878 10.554,93.268 61.246,-10.68 46.574,-97.716 -10.554,-93.268 z"
     id="path182"
     style="stroke-width:2" />
  <path
     fill="#2d444d"
     d="m 442.3724,212.83487 c 57.128,-4.448 71.8,82.588 10.554,93.268 -64.712,5.61 -70.886,-87.318 -10.554,-93.268 z m -21.04,14.596 c -17.10616,-0.28155 -20.36664,18.58238 -11.33228,26.66686 7.19906,6.44214 20.13347,7.44149 28.73628,-4.54086 2.882,5.308 8.106,7.664 13.544,4.096 7.034,-4.614 -1.674,-23.25 -12.608,-9.652 -1.454,-2.292 -1.67406,-16.39225 -18.34,-16.57 z"
     id="path184"
     style="stroke-width:2"
     sodipodi:nodetypes="ccccscccc" />
</svg>
