<?xml version="1.0" encoding="UTF-8" standalone="no"?>
<!-- Created with Inkscape (http://www.inkscape.org/) -->

<svg
   width="226.11078mm"
   height="149.72484mm"
   viewBox="0 0 226.11078 149.72484"
   version="1.1"
   id="svg5"
   xml:space="preserve"
   xmlns="http://www.w3.org/2000/svg"
   xmlns:svg="http://www.w3.org/2000/svg"><defs
     id="defs2" /><g
     id="layer1"
     transform="translate(143.51848,-146.3553)"><g
       id="g1136"
       transform="matrix(0.26458333,0,0,0.26458333,-64.502873,-107.72779)"><path
         fill="#f7dcb0"
         transform="scale(2)"
         d="m 89.5893,239.137 c 3.3417,4.295 -0.5773,6.095 10.0588,11.005 -5.8648,3.488 -7.4685,3.989 -10.0588,10.752 l -0.182,0.215 c -1.202,-0.976 -1.5257,-3.825 -2.3898,-5.255 -1.7597,-2.911 -4.885,-3.565 -7.2722,-5.529 2.9393,-3.897 5.2357,-1.525 9.844,-11.188 z"
         id="path1049" /><path
         fill="#f7dcb0"
         transform="scale(2)"
         d="m 399.221,202.657 c 2.675,2.651 -0.508,7.721 9.932,13.057 -5.904,3.761 -7.305,5.859 -9.932,12.234 -2.118,-6.186 -4.087,-9.751 -10.696,-12.234 6.402,-2.239 8.802,-6.774 10.696,-13.057 z"
         id="path1051" /><path
         fill="#e46766"
         transform="scale(2)"
         d="m 195.397,84.4484 c -3.361,2.0172 -6.948,3.5924 -10.752,1.4514 -13.521,-7.6099 9.573,-25.5222 12.568,-5.7572 -0.457,1.5698 -0.86,2.9497 -1.816,4.3058 z"
         id="path1053" /><path
         fill="#e46766"
         transform="scale(2)"
         d="m 296.584,77.6038 c -0.141,-5.1883 3.049,-9.3031 8.56,-9.168 15.182,0.3722 5.718,25.6382 -6.742,13.4095 -1.006,-1.3035 -1.415,-2.6778 -1.818,-4.2415 z"
         id="path1055" /><path
         fill="#f7dcb0"
         transform="scale(2)"
         d="m 93.6992,150.889 c 0.3301,0.517 0.3489,1.059 0.4872,1.651 2.4243,10.39 6.6296,12.539 15.1766,17.822 -11.7973,7.025 -9.5755,4.193 -15.6638,18.236 -4.9129,-6.301 -0.8027,-13.141 -16.4834,-18.236 11.2536,-8.099 10.3939,-3.437 16.4834,-19.473 z"
         id="path1057" /><path
         fill="#f7dcb0"
         transform="scale(2)"
         d="m 368.489,93.68 c 5.502,6.896 -0.95,16.417 20.036,25.105 -13.095,5.067 -16.429,10.471 -20.036,24.276 l -0.268,-0.03 c -0.544,-1.131 -0.694,-2.56 -1.059,-3.77 -2.853,-9.462 -8.804,-17.07 -18.403,-20.476 12.552,-6.805 14.987,-11.071 19.73,-25.105 z"
         id="path1059" /><path
         fill="#5ab4c5"
         transform="scale(2)"
         d="m 366.153,305.42 c 0.71,0.386 19.31,20.548 21.134,23.243 2.653,7.714 7.341,27.581 6.455,34.357 -0.17,1.3 -0.891,4.26 -2.762,3.243 -4.468,-2.431 -4.601,-13.75 -7.479,-15.258 -2.332,1.097 -1.434,16.652 -4.272,20.133 -0.89,1.091 -3.109,1.373 -4.08,0.249 -3.607,-4.173 1.836,-16.996 -0.624,-19.712 l -0.527,-0.014 c -2.73,1.627 -11.54,18.714 -15.726,14.22 -3.584,-3.847 11.615,-16.338 8.963,-19.487 -4.078,-1.184 -14.517,5.397 -15.403,-2.171 -0.494,-4.222 4.555,-3.652 7.22,-4.655 11.568,-4.357 8.55,-24.967 7.101,-34.148 z"
         id="path1061" /><path
         fill="#5ab4c5"
         transform="scale(2)"
         d="m 107.226,328.663 c 6.209,-5.006 18.944,-18.11 24.636,-20.71 -1.722,10.632 -3.342,23.18 6.097,30.682 1.62,1.288 13.309,8.061 9.757,10.634 -3.867,0.614 -12.908,-5.437 -15.471,-3.627 -2.583,4.593 11.554,15.532 9.25,20.525 -3.411,7.392 -17.935,-21.73 -17.977,-11.983 -0.02,4.542 2.879,15.496 0.104,19.05 -3.905,1.124 -7.905,-17.04 -8.463,-20.076 -1.831,-9.961 -5.906,14.574 -10.56,13.442 -2.935,-2.692 2.713,-30.152 2.627,-37.937 z"
         id="path1063" /><path
         fill="#5ab4c5"
         transform="scale(2)"
         d="m 186.749,369.474 c 0.655,0.322 1.341,0.624 1.977,0.98 12.558,5.035 22.176,6.805 34.781,10.06 v 1.969 c -1.984,5.201 -3.996,17.237 -4.965,23.179 8.111,4.488 16.455,11.64 20.277,20.293 8.53,19.309 -40.217,11.752 -48.483,8.071 -16.88,-7.515 -9.372,-51.659 -3.587,-64.552 z"
         id="path1065" /><path
         fill="#b0dfeb"
         transform="scale(2)"
         d="m 207.968,416.474 c 3.687,-0.096 4.27,2.796 1.405,4.517 -3.378,-0.106 -4.084,-2.849 -1.405,-4.517 z"
         id="path1067" /><path
         fill="#b0dfeb"
         transform="scale(2)"
         d="m 221.03,418.846 c 8.332,1.262 8.594,8.494 0.78,10.152 -8.012,-0.048 -8.568,-8.59 -0.78,-10.152 z"
         id="path1069" /><path
         fill="#5ab4c5"
         transform="scale(2)"
         d="m 273.095,380.514 c 15.995,-3.516 25.007,-5.472 40.144,-14.015 0.623,1.884 1.223,3.781 1.883,5.653 l 0.005,0.274 c 0.105,3.99 1.268,7.973 1.908,11.902 5.406,33.235 5.958,52.951 -32.663,54.125 -19.869,0.604 -39.862,-2.354 -16.69,-23.524 4.365,-3.988 9.431,-7.177 14.965,-9.267 -2.079,-6.557 -5.823,-12.824 -7.158,-19.545 -1.136,-1.847 -1.857,-3.511 -2.394,-5.603 z"
         id="path1071" /><path
         fill="#b0dfeb"
         transform="scale(2)"
         d="m 288.873,418.846 c 2.241,0.259 3.089,1.158 1.632,3.072 -2.158,0.189 -2.87,-1.175 -1.632,-3.072 z"
         id="path1073" /><path
         fill="#b0dfeb"
         transform="scale(2)"
         d="m 275.489,418.846 c 8.549,0.271 7.971,9.068 0,10.152 -8.338,-0.05 -8.359,-9.423 0,-10.152 z"
         id="path1075" /><path
         fill="#e29494"
         transform="scale(2)"
         d="m 275.489,111.956 c 1.313,-12.7877 9.808,-28.1843 21.095,-34.3522 0.403,1.5637 0.812,2.938 1.818,4.2415 -10.119,9.587 -15.268,17.6592 -18.383,31.8217 54.073,19.336 85.164,79.213 87.615,134.163 0.291,6.518 -0.308,13.101 0.113,19.59 11.628,13.022 36.843,41.998 35.643,57.661 -0.918,11.979 -10.254,7.191 -16.103,3.582 -1.824,-2.695 -20.424,-22.857 -21.134,-23.243 -1.426,-2.309 -3.011,-3.963 -5.016,-5.784 -4.092,28.859 -24.69,51.234 -47.898,66.863 -15.137,8.543 -24.149,10.499 -40.144,14.015 -13.033,4.067 -35.262,0.185 -49.588,0 -12.605,-3.255 -22.223,-5.025 -34.781,-10.06 -0.636,-0.356 -1.322,-0.658 -1.977,-0.98 -30.477,-14.247 -39.58,-36.456 -49.291,-66.012 -2.032,1.325 -3.844,2.815 -5.596,4.491 -5.692,2.6 -18.427,15.704 -24.636,20.71 -15.2463,8.599 -13.8391,-2.332 -9.4751,-14.553 6.7871,-19.007 18.2221,-31.889 32.8561,-45.22 0.35,-6.972 -0.141,-14.008 0.081,-20.999 1.288,-40.555 16.967,-81.993 46.819,-110.089 13.236,-12.456 21.952,-16.845 37.88,-24.135 -4.521,-13.8187 -7.104,-21.1548 -19.99,-29.2186 0.956,-1.3561 1.359,-2.736 1.816,-4.3058 12.725,4.6527 19.71,19.5434 22.514,31.8134 21.306,-4.844 33.535,-5.961 55.762,0 z m 18.057,50.888 c -45.05,5.592 -36.781,72.067 8.017,67.599 7.254,-0.058 15.114,-3.753 20.196,-8.883 22.156,-22.365 2.197,-61.35 -28.213,-58.716 z m -97.409,1.748 c -44.605,5.459 -36.464,70.073 7.423,65.851 17.736,-2.134 31.158,-18.655 28.88,-36.565 -2.18,-17.132 -18.964,-31.704 -36.303,-29.286 z m 4.785,98.579 c 0.12,2.842 0.14,5.79 0.627,8.596 2.455,18.131 18.649,18.999 25.104,3.286 0.706,-1.324 1.225,-2.76 1.791,-4.149 h -2.86 c -5.265,-2.326 -13.534,-3.308 -19.844,-5.746 -1.621,-0.509 -3.245,-1.328 -4.818,-1.987 z m 102.757,-3.864 c -8.961,4.24 -17.646,7.44 -27.348,9.583 3.446,7.328 13.352,19.548 21.554,11.661 5.194,-4.996 5.718,-14.538 5.794,-21.244 z M 245.19,217.284 c -15.956,4.827 -6.835,22.031 8.567,18.094 12.691,-3.333 11.207,-18.982 -8.567,-18.094 z"
         id="path1077" /><path
         fill="#e8cecc"
         transform="scale(2)"
         d="m 189.549,343.78 c 5.058,-0.33 10.944,3.29 5.848,8.014 -7.352,1.449 -9.957,-5.014 -5.848,-8.014 z"
         id="path1079" /><path
         fill="#f7dcb0"
         transform="scale(2)"
         d="m 161.073,219.159 c 4.337,4.167 -6.405,12.479 14.823,15.444 -4.013,0.204 -8.744,0.366 -12.351,2.315 -1.554,2.774 -2.044,5.813 -2.472,8.92 l -0.307,-0.004 c -3.428,-11.342 -0.004,-9.834 -14.126,-11.231 3.945,-0.718 8.314,-1.13 11.795,-3.235 2.096,-3.706 2.211,-8.066 2.638,-12.209 z"
         id="path1081" /><path
         fill="#f7dcb0"
         transform="scale(2)"
         d="m 340.486,221.484 c 4.832,9.07 -5.249,11.12 15.08,15.434 -11.836,0.664 -13.961,2.049 -14.073,14.25 l -0.063,0.124 c -4.166,-6.538 3.938,-14.275 -14.772,-14.374 10.597,-2.869 13.895,-2.477 13.828,-15.434 z"
         id="path1083" /><path
         fill="#af4948"
         transform="scale(2)"
         d="m 245.19,217.284 c 19.774,-0.888 21.258,14.761 8.567,18.094 -15.402,3.937 -24.523,-13.267 -8.567,-18.094 z m 3.988,1.049 c -9.242,1.367 -4.491,8.537 2.858,8.114 9.903,-2.087 4.293,-8.296 -2.858,-8.114 z"
         id="path1085" /><path
         fill="#f6f2f2"
         transform="scale(2)"
         d="m 200.922,263.171 c 1.573,0.659 3.197,1.478 4.818,1.987 6.31,2.438 14.579,3.42 19.844,5.746 h 2.86 c -0.566,1.389 -1.085,2.825 -1.791,4.149 -6.455,15.713 -22.649,14.845 -25.104,-3.286 -0.487,-2.806 -0.507,-5.754 -0.627,-8.596 z m 24.662,7.733 c -0.9,1.646 -0.604,3.127 1.069,4.149 0.706,-1.324 1.225,-2.76 1.791,-4.149 z"
         id="path1087" /><path
         fill="#af4948"
         transform="scale(2)"
         d="m 200.922,263.171 c -4.791,-3.235 -19.542,-8.474 -20.209,-13.841 1.553,-3.958 7.417,2.203 9.059,3.316 31.366,21.247 85.972,20.327 117.825,-0.048 2.545,-1.628 6.17,-5.175 8.828,-6.046 8.336,0.936 -11.807,12.238 -12.746,12.755 -8.961,4.24 -17.646,7.44 -27.348,9.583 -17.189,3.062 -30.465,3.351 -47.887,2.014 h -2.86 c -5.265,-2.326 -13.534,-3.308 -19.844,-5.746 -1.621,-0.509 -3.245,-1.328 -4.818,-1.987 z"
         id="path1089" /><path
         fill="#e8cecc"
         transform="scale(2)"
         d="m 159.575,306.776 c 16.35,-0.99 37.714,29.175 19.616,35.056 -16.613,2.075 -38.429,-30.314 -19.616,-35.056 z"
         id="path1091" /><path
         fill="#b0dfeb"
         transform="scale(2)"
         d="m 196.137,164.592 c 17.339,-2.418 34.123,12.154 36.303,29.286 2.278,17.91 -11.144,34.431 -28.88,36.565 -43.887,4.222 -52.028,-60.392 -7.423,-65.851 z m -8.542,17.556 c -2.66,2.393 -2.512,3.624 -4.026,6.45 l -0.101,-0.088 c -3.279,1.225 -2.361,13.988 -1.318,17.148 6.696,20.289 35.1,21.078 44.07,2.532 9.029,-18.667 -11.344,-39.007 -30,-31.856 -2.082,0.798 -8.242,3.445 -8.625,5.814 z"
         id="path1093" /><path
         fill="#2d444d"
         transform="scale(2)"
         d="m 187.595,182.148 c 0.383,-2.369 6.543,-5.016 8.625,-5.814 18.656,-7.151 39.029,13.189 30,31.856 -8.97,18.546 -37.374,17.757 -44.07,-2.532 -1.043,-3.16 -1.961,-15.923 1.318,-17.148 l 0.101,0.088 c 1.514,-2.826 1.366,-4.057 4.026,-6.45 z m 17.147,5.37 c -4.852,2.664 -3.946,8.821 2.271,8.429 5.189,-2.567 3.893,-8.77 -2.271,-8.429 z"
         id="path1095" /><path
         fill="#f6f2f2"
         transform="scale(2)"
         d="m 187.595,182.148 c 7.65,-3.515 15.909,2.396 12.555,10.593 -3.674,8.982 -17.866,5.848 -16.581,-4.143 1.514,-2.826 1.366,-4.057 4.026,-6.45 z"
         id="path1097" /><path
         fill="#b0dfeb"
         transform="scale(2)"
         d="m 293.546,162.844 c 30.41,-2.634 50.369,36.351 28.213,58.716 -5.082,5.13 -12.942,8.825 -20.196,8.883 -44.798,4.468 -53.067,-62.007 -8.017,-67.599 z m 4.856,12.006 c -30.166,2.975 -27.079,49.439 5.277,46.634 30.623,-5.34 23.287,-48.858 -5.277,-46.634 z"
         id="path1099" /><path
         fill="#2d444d"
         transform="scale(2)"
         d="m 298.402,174.85 c 28.564,-2.224 35.9,41.294 5.277,46.634 -32.356,2.805 -35.443,-43.659 -5.277,-46.634 z m -10.52,7.298 c -16.04,-0.264 -3.504,29.506 8.702,11.063 1.441,2.654 4.053,3.832 6.772,2.048 3.517,-2.307 -0.837,-11.625 -6.304,-4.826 -0.727,-1.146 -1.535,-10.988 -9.17,-8.285 z"
         id="path1101" /><path
         id="path1077-9"
         style="fill:#e29494;fill-opacity:1;stroke-width:2"
         d="m 266.43446,978.65759 c -22.2894,12.18026 -39.0118,42.32791 -41.961,67.70701 h 10.1055 c 6.3311,-25.4204 16.4191,-41.1543 35.4922,-59.22459 -2.012,-2.60699 -2.8307,-5.35502 -3.6367,-8.48242 z" /><path
         id="path1077-9-6"
         style="fill:#e29494;fill-opacity:1;stroke-width:2"
         d="m 1776.8756,1324.3914 c -22.2894,12.1803 -39.0118,42.3279 -41.961,67.707 h 10.1055 c 6.3311,-25.4204 16.4191,-41.1543 35.4922,-59.2246 -2.012,-2.607 -2.8307,-5.355 -3.6367,-8.4824 z m -198.7403,5.0781 c -0.914,3.1396 -1.7208,5.8992 -3.6328,8.6113 24.2347,15.1656 30.2956,29.435 38.4453,54.0176 h 9.9082 c -5.7517,-24.349 -19.6052,-53.4458 -44.7207,-62.6289 z" /><path
         id="path1077-9-1"
         style="fill:#e29494;fill-opacity:1;stroke-width:2"
         d="m 386.75594,1051.7204 c -24.90394,-4.9967 -57.09262,7.3488 -75.66518,24.8945 l 7.74124,6.4957 c 21.18983,-15.4036 39.03123,-20.972 65.25753,-22.5548 0.1344,-3.2902 1.27368,-5.9217 2.66641,-8.8354 z" /></g><g
       id="g2100"
       transform="matrix(0.26458333,0,0,0.26458333,-165.27417,87.371862)"><rect
         style="fill:#fefefe;fill-opacity:1;stroke-width:1.99937;stroke-dasharray:none"
         id="rect14946"
         width="12.602938"
         height="13.344287"
         x="127.08321"
         y="650.33942" /><path
         fill="#5ab4c5"
         transform="scale(2)"
         d="m 85.8656,274.905 c -6.889,-9.477 -5.3703,-27.821 5.6156,-24.051 7.6717,2.633 10.1208,11.79 13.2508,18.338 -5.8488,7.491 -11.1408,19.848 -10.4292,29.355 L 73.218,298.535 c -5.8043,10e-4 -12.4336,-0.879 -17.7952,1.824 -10.4143,-5.625 -14.9907,-20.46 -2.1835,-26.785 9.9047,-4.891 22.7067,-1.988 32.6263,1.331 z m -32.3086,2.76 c -4.6968,1.852 -8.1536,10.404 -3.2965,12.872 2.9766,-0.631 6.0202,-10.937 3.2965,-12.872 z m 0,14.37 c -3.964,1.269 -0.6445,4.168 1.8658,4.97 2.1156,-2.142 1.7045,-5.136 -1.8658,-4.97 z"
         id="path1968" /><path
         fill="#468d9b"
         transform="scale(2)"
         d="m 55.4228,300.359 c 5.3616,-2.703 11.9909,-1.823 17.7952,-1.824 l 21.0848,0.012 c -0.1536,2.939 -0.0445,5.027 1.5907,7.575 1.1912,-0.059 2.4095,-0.003 3.6036,0 3.5389,-0.543 6.9269,-0.794 10.4999,-0.786 0.036,3.092 0.307,5.764 1.102,8.754 2.76,9.71 10.683,16.313 18.411,22.159 28.967,14.631 51.226,19.089 82.587,3.75 8.33,4.149 15.477,7.276 24.784,8.713 -4.204,2.89 -6.974,6.275 -8.714,11.081 -0.446,2.61 -1.006,5.255 -0.963,7.912 0.909,1.273 1.492,2.682 1.909,4.183 1.821,2.714 3.712,5.349 5.883,7.8 0.812,0.912 1.332,1.759 1.885,2.844 -1.139,2.52 -2.156,4.509 -1.885,7.349 -6.286,-2.145 -12.621,-4.256 -18.694,-6.959 -7.751,-3.45 -14.163,-8.297 -22.805,-9.658 -14.067,-2.216 -27.955,0.944 -41.794,3.128 -14.612,2.307 -54.7687,5.548 -57.4113,-16.284 -0.6617,-5.466 -0.6337,-8.992 -6.1681,-11.555 -13.7357,-6.362 -36.8593,-3.501 -44.8053,-19.339 -6.0002,-11.96 0.9764,-23.49 12.1045,-28.855 z m 54.5742,4.977 c -3.573,-0.008 -6.961,0.243 -10.4999,0.786 -1.1941,-0.003 -2.4124,-0.059 -3.6036,0 l -0.2949,0.044 c -10.851,1.56 -28.8382,-0.596 -36.1948,9.06 -4.0649,5.336 -2.7853,11.563 2.5563,15.388 11.8861,8.513 52.6879,7.198 67.5499,5.635 -7.728,-5.846 -15.651,-12.449 -18.411,-22.159 -0.795,-2.99 -1.066,-5.662 -1.102,-8.754 z"
         id="path1970" /><path
         fill="#fedfaf"
         transform="scale(2)"
         d="m 227.204,367.705 c -11.234,-3.898 -9.984,-8.384 0.963,-7.912 -0.446,2.61 -1.006,5.255 -0.963,7.912 z"
         id="path1972" /><path
         fill="#fedfaf"
         transform="scale(2)"
         d="m 229.113,371.888 c 1.821,2.714 3.712,5.349 5.883,7.8 -10.71,2.817 -17.125,-0.634 -5.883,-7.8 z"
         id="path1974" /><path
         fill="#5ab4c5"
         transform="scale(2)"
         d="m 109.997,305.336 c 0.036,3.092 0.307,5.764 1.102,8.754 2.76,9.71 10.683,16.313 18.411,22.159 -14.862,1.563 -55.6638,2.878 -67.5499,-5.635 -5.3416,-3.825 -6.6212,-10.052 -2.5563,-15.388 7.3566,-9.656 25.3438,-7.5 36.1948,-9.06 l 0.2949,-0.044 c 1.1912,-0.059 2.4095,-0.003 3.6036,0 3.5389,-0.543 6.9269,-0.794 10.4999,-0.786 z m -43.4223,20.769 c -2.1016,2.024 -3.2085,3.395 0,4.919 2.0841,-0.504 1.5868,-4.088 0,-4.919 z"
         id="path1976" /><path
         fill="#fefefe"
         transform="scale(2)"
         d="m 63.1757,315.154 c 3.61,0.457 0.1438,8.691 -1.5987,10.015 l -0.1955,-0.16 c -3.3099,-2.686 -1.1199,-7.84 1.7942,-9.855 z"
         id="path1978" /><path
         fill="#fefefe"
         transform="scale(2)"
         d="m 69.4432,314.09 c 5.8391,-0.351 1.6931,6.673 0,9.047 -4.7786,-0.202 -2.3288,-7.212 0,-9.047 z"
         id="path1980" /><path
         fill="#468d9b"
         transform="scale(2)"
         d="m 401.444,283.381 c 20.708,4.014 32.144,30.008 33.997,30.709 10.1,2.056 23.649,5.108 29.67,14.198 7.335,11.074 1.587,25.324 -8.908,31.925 -15.74,9.899 -45.028,12.003 -63.404,11.084 -46.075,-2.306 -41.122,-5.176 -82.705,15.074 -18.803,9.156 -51.979,10.262 -72.081,4.479 2.996,-1.1 4.682,-0.977 6.951,-3.545 3.3,-0.519 6.588,-0.077 9.918,-0.988 17.025,-4.659 25.485,-20.443 33.39,-34.354 26.013,1.443 66.272,-12.477 84.784,-29.526 1.997,-1.84 3.73,-3.958 6.063,-5.399 5.87,0.709 18.765,4.944 23.133,4.785 -4.192,-18.809 -13.146,-12.615 -0.808,-38.442 z"
         id="path1982" /><path
         fill="#fbc1c0"
         transform="scale(2)"
         d="m 438.054,323.757 c 4.008,-1.427 9.176,-1.879 13.288,-0.62 2.176,0.931 4.377,2.741 0.896,4.043 -4.632,0.849 -9.492,0.839 -14.184,0.608 z"
         id="path1984" /><path
         fill="#fbc1c0"
         transform="scale(2)"
         d="m 432.91,343.173 c 3.282,3.181 5.464,7.279 6.451,11.744 -3.425,7.417 -9.397,-4.517 -10.556,-7.685 1.301,-1.418 2.714,-2.73 4.105,-4.059 z"
         id="path1986" /><path
         fill="#fbc1c0"
         transform="scale(2)"
         d="m 437.25,333.552 c 5.875,1.42 10.834,4.502 14.092,9.621 -3.631,6.254 -12.717,-3.248 -14.85,-6.924 0.162,-0.962 0.266,-1.839 0.758,-2.697 z"
         id="path1988" /><path
         fill="#5ab4c5"
         transform="scale(2)"
         d="m 401.444,283.381 c 20.708,4.014 32.144,30.008 33.997,30.709 l -0.325,0.396 c 0.497,3.104 2.282,6.11 2.938,9.271 v 4.031 c -0.238,1.917 -0.411,3.874 -0.804,5.764 -0.492,0.858 -0.596,1.735 -0.758,2.697 -1.438,2.089 -2.448,4.652 -3.582,6.924 -1.391,1.329 -2.804,2.641 -4.105,4.059 -5.665,1.749 -8.646,4.936 -16.116,0.603 -8.866,-5.142 -7.938,-17.113 -10.355,-25.728 l -0.082,-0.284 c -4.192,-18.809 -13.146,-12.615 -0.808,-38.442 z"
         id="path1990" /><path
         fill="#e29494"
         transform="scale(2)"
         d="m 318.666,154.923 c 30.1092,13.03029 -20.8856,-7.63144 7.187,3.116 8.58,3.717 23.524,11.105 29.755,17.999 11.44333,11.29521 -18.25581,-13.1948 5.504,3.853 3.979,5.267 9.329,9.324 13.442,14.487 19.455,24.419 30.765,56.704 22.273,87.689 1.541,0.431 3.082,0.859 4.617,1.314 -12.338,25.827 -3.384,19.633 0.808,38.442 -4.368,0.159 -17.263,-4.076 -23.133,-4.785 -2.333,1.441 -4.066,3.559 -6.063,5.399 -18.512,17.049 -58.771,30.969 -84.784,29.526 -7.905,13.911 -16.365,29.695 -33.39,34.354 -3.33,0.911 -6.618,0.469 -9.918,0.988 -2.269,2.568 -3.955,2.445 -6.951,3.545 -1.107,-0.126 -2.006,-0.536 -3.017,-0.969 -0.271,-2.84 0.746,-4.829 1.885,-7.349 -0.553,-1.085 -1.073,-1.932 -1.885,-2.844 -2.171,-2.451 -4.062,-5.086 -5.883,-7.8 -0.417,-1.501 -1,-2.91 -1.909,-4.183 -0.043,-2.657 0.517,-5.302 0.963,-7.912 1.74,-4.806 4.51,-8.191 8.714,-11.081 -9.307,-1.437 -16.454,-4.564 -24.784,-8.713 -31.361,15.339 -53.62,10.881 -82.587,-3.75 -7.728,-5.846 -15.651,-12.449 -18.411,-22.159 -0.795,-2.99 -1.066,-5.662 -1.102,-8.754 -3.573,-0.008 -6.961,0.243 -10.4999,0.786 -1.1941,-0.003 -2.4124,-0.059 -3.6036,0 -1.6352,-2.548 -1.7443,-4.636 -1.5907,-7.575 -0.7116,-9.507 4.5804,-21.864 10.4292,-29.355 3.512,-4.977 7.697,-9.608 13.625,-11.497 2.177,-3.315 3.08,-7.399 4.731,-10.985 21.642,-47.005 60.025,-84.27 111.364,-96.835 27.321,-6.687 58.046,-5.889 84.214,5.048 z m -75.329,108.149 1.627,-1.746 c 0.995,0.757 1.92,1.435 3.158,1.746 0.865,0.144 1.875,0.437 2.71,0.119 l 0.061,-0.156 c -0.583,-2.322 0.451,-2.172 1.942,-3.536 l -0.033,-0.668 c -12.657,-0.483 -17.701,-13.652 -12.387,-23.941 0.239,-1.483 1.666,-2.42 1.809,-3.605 -3.397,-1.283 -1.788,-1.801 -2.818,-4.417 l -0.636,-0.085 c 14.953,-20.059 44.894,-2.514 38.044,21.968 0.104,1.079 -0.102,1.839 -0.448,2.853 l 0.009,0.006 c 7.677,-11.491 2.348,-26.059 -8.393,-33.28 -17.061,-11.47 -41.052,5.908 -36.514,27.215 1.869,8.772 6.3,11.468 11.869,17.527 z m 86.139,-62.526 c -23.139,11.525 -19.565,41.965 3.033,49.051 3.097,0.971 6.161,0.999 9.291,1.608 1.96,-1.138 3.985,-2.191 5.891,-3.418 -4.27,0.8 -9.101,1.284 -13.324,0 2.552,-1.277 3.957,-1.294 6.589,-1.866 l -0.032,-0.133 c -2.808,-1.465 1.616,-1.575 -3.175,-1.682 l -0.425,-0.27 c -8.24,-0.222 -14.452,-5.214 -16.016,-13.365 l -0.277,-1.076 c -0.979,-0.451 -1.808,0.166 -2.636,0.622 l -0.962,0.518 -0.113,-0.152 -0.44,0.088 c -3.083,-11.543 4.97,-24.849 16.388,-27.946 19.096,-5.179 31.182,11.517 27.844,29.691 2.212,-0.37 1.234,-12.411 0.814,-14.368 -1.556,-7.268 -6.812,-13.307 -12.913,-17.302 -7.963,-0.463 -7.464,-4.24 -19.537,0 z"
         id="path1992" /><path
         fill="#cf515c"
         transform="scale(2)"
         d="m 169.58,314.09 c 2.972,0.553 2.776,2.513 0.902,4.238 -3.262,-0.216 -2.538,-2.477 -0.902,-4.238 z"
         id="path1994" /><path
         fill="#cf515c"
         transform="scale(2)"
         d="m 238.013,319.243 c 2.191,-0.213 22.254,-0.172 23.079,0.48 l -0.641,0.354 c -3.737,0.573 -20.17,2.492 -22.438,-0.834 z"
         id="path1996" /><path
         fill="#cf515c"
         transform="scale(2)"
         d="m 183.02,320.779 c 4.729,0.096 4.729,3.887 1.236,6.401 -4.696,0.133 -5.324,-5.005 -1.236,-6.401 z"
         id="path1998" /><path
         fill="#e25e68"
         transform="scale(2)"
         d="m 147.486,318.328 c 5.94,0.432 6.264,8.546 0,9.46 -6.155,0 -6.468,-7.085 0,-9.46 z"
         id="path2000" /><path
         fill="#fbc1c0"
         transform="scale(2)"
         d="m 154.291,213.994 c 7.8,0.213 0.976,11.394 -3.468,12.789 -7.323,-0.519 -0.925,-10.754 3.468,-12.789 z"
         id="path2002" /><path
         fill="#fbc1c0"
         transform="scale(2)"
         d="m 168.719,196.542 c 10.625,-1.173 2.302,10.564 -3.848,13.877 -10.869,0.981 -2.624,-10.817 3.848,-13.877 z"
         id="path2006" /><path
         fill="#0a3a53"
         transform="scale(2)"
         d="m 313.371,266.338 c 4.823,-0.283 11.431,2.035 13.778,6.47 -0.255,7.615 -9.248,-11.308 -24.653,2.097 -0.995,0.971 -8.526,13.977 -9.014,9.026 -0.764,-7.75 12.598,-16.689 19.889,-17.593 z"
         id="path2008" /><path
         fill="#e25e68"
         transform="scale(2)"
         d="m 155.838,304.302 c 9.273,-0.928 11.601,10.283 3.371,14.026 -9.801,-0.379 -11.876,-10.05 -3.371,-14.026 z"
         id="path2010" /><path
         fill="#e25e68"
         transform="scale(2)"
         d="m 164.871,320.779 c 9.407,-1.511 11.232,8.807 3.848,13.558 -9.117,1.017 -13.76,-11.106 -3.848,-13.558 z"
         id="path2014" /><path
         fill="#e25e68"
         transform="scale(2)"
         d="m 329.476,200.546 c -1.859,-1 -6.602,0.054 -8.722,0.17 -3.997,0.221 -9.733,-4.152 -5.227,-7.783 7.321,-5.899 27.793,0.795 33.486,7.613 -7.963,-0.463 -7.464,-4.24 -19.537,0 z"
         id="path2016" /><path
         fill="#e25e68"
         transform="scale(2)"
         d="m 99.4971,306.122 c 1.9599,-11.087 12.5219,-42.846 18.8599,-48.427 -5.983,18.352 -7.92,28.924 -8.36,47.641 -3.573,-0.008 -6.961,0.243 -10.4999,0.786 z"
         id="path2018" /><path
         fill="#e25e68"
         transform="scale(2)"
         d="m 255.143,203.615 c 2.554,-0.011 6.424,0.881 6.811,3.986 0.636,5.101 -8.686,5.72 -11.922,6.551 -7.08,1.818 -12.968,5.869 -17.211,11.873 -1.54,2.185 -4.445,4.674 -4.734,-0.112 -0.706,-11.701 16.478,-21.767 27.056,-22.298 z"
         id="path2020" /><path
         fill="#fbc1c0"
         transform="scale(2)"
         d="m 199.487,169.581 c 17.103,-1.247 4.436,21.21 -15.231,25.176 -22,0.731 -0.294,-22.606 15.231,-25.176 z"
         id="path2026" /><path
         fill="#fefefe"
         transform="scale(2)"
         d="m 238.17972,226.97976 c 14.953,-20.059 45.48428,-2.71076 38.63428,21.77124 -1.793,4.329 -3.941,7.495 -6.929,11.054 -1.867,0.939 -3.614,2.164 -5.389,3.267 -5.289,2.127 -11.113,2.3 -16.374,0 0.865,0.144 -4.35569,-1.13707 -3.52069,-1.45507 l -3.61182,-3.17296 c -1.89473,-1.73173 -0.27045,-0.20442 -1.99317,-1.96193 l -3.57466,-4.86552 C 233.22788,245.02273 276.691,247.009 267.809,234.89 c -4.921,7.96 -23.65227,27.23313 -31.03709,19.41416 -1.83728,-4.16141 0.93522,3.00643 -1.20802,-3.04325 -1.85976,-4.49997 -1.59195,-3.17538 -2.98106,-11.51529 2.41706,-8.58016 0.44193,-1.66983 1.77303,-6.38459 z"
         id="path2028" /><path
         fill="#8c544f"
         transform="scale(2)"
         d="m 240.415,234.89 c 4.242,-5.887 8.883,-7.768 15.836,-7.345 -3.896,12.41 6.637,15.305 11.558,7.345 8.882,12.119 -1.001,24.037 -15.007,23.941 -12.657,-0.483 -17.701,-13.652 -12.387,-23.941 z"
         id="path2030" /><path
         fill="#e25e68"
         transform="scale(2)"
         d="m 111.099,314.09 0.224,0.194 c 2.211,1.948 3.746,4.515 5.566,6.809 13.004,16.393 34.543,24.604 55.225,23.462 12.174,-0.673 22.758,-4.991 34.302,-8.306 -7.064,-7.599 -11.66,-12.576 -11.441,-23.408 6.972,19.223 31.808,31.586 51.08,31.686 -2.889,2.362 -5.642,3.153 -9.174,4.185 -9.307,-1.437 -16.454,-4.564 -24.784,-8.713 -31.361,15.339 -53.62,10.881 -82.587,-3.75 -7.728,-5.846 -15.651,-12.449 -18.411,-22.159 z"
         id="path2032" /><path
         fill="#e25e68"
         transform="scale(2)"
         d="m 392.404,293.181 c 1.547,5.649 -9.998,19.684 -13.285,23.857 -2.333,1.441 -4.066,3.559 -6.063,5.399 -18.512,17.049 -58.771,30.969 -84.784,29.526 0.753,-2.457 1.328,-4.892 1.705,-7.436 l 0.289,0.032 c 14.148,1.433 37.96,-5.634 51.43,-11.047 21.827,-8.772 37.835,-20.331 50.708,-40.331 z"
         id="path2034" /><path
         fill="#a3dbd7"
         transform="scale(2)"
         d="m 357.682,239.106 c 10.532,0.633 15.055,19.718 7.72,26.133 -0.987,0.862 -2.633,1.723 -3.432,2.655 0.022,4.557 1.163,11.403 -2.389,14.85 -2.319,2.25 -5.963,2.605 -8.196,0.055 -3.155,-3.602 -1.622,-9.361 -0.862,-13.607 -4.191,-0.108 -8.732,-0.099 -11.814,-3.44 -3.985,-4.319 -2.535,-9.693 1.872,-12.768 l 1.219,-1.779 c 1.96,-1.138 3.985,-2.191 5.891,-3.418 1.472,-1.119 3.188,-2.025 4.781,-2.96 1.82,-1.832 3.52,-3.77 5.21,-5.721 z"
         id="path2036" /><path
         fill="#5ab4c5"
         transform="scale(2)"
         d="m 352.472,244.827 c 1.052,3.927 -8.865,8.76 -11.891,8.157 l 1.219,-1.779 c 1.96,-1.138 3.985,-2.191 5.891,-3.418 1.472,-1.119 3.188,-2.025 4.781,-2.96 z"
         id="path2038" /><path
         fill="#a3dbd7"
         transform="scale(2)"
         d="m 269.885,259.805 c 11.018,8.799 6.095,19.068 -5.389,23.576 2.735,6.502 3.348,15.178 -5.004,16.978 -7.149,-2.079 -8.056,-8.661 -8.221,-15.218 -11.308,-2.17 -14.854,-12.297 -7.934,-21.218 0.093,-0.528 0.082,-0.245 0,-0.851 l 1.627,-1.746 c 0.995,0.757 1.92,1.435 3.158,1.746 5.261,2.3 11.085,2.127 16.374,0 1.775,-1.103 3.522,-2.328 5.389,-3.267 z"
         id="path2040" /><path
         fill="#5ab4c5"
         transform="scale(2)"
         d="m 244.964,261.326 c 0.995,0.757 1.92,1.435 3.158,1.746 5.261,2.3 11.085,2.127 16.374,0 4.555,3.473 -15.577,7.882 -21.159,0.851 0.093,-0.528 0.082,-0.245 0,-0.851 z"
         id="path2042" /><path
         fill="#fefefe"
         transform="scale(2)"
         d="m 316.88,230.471 c -3.083,-11.543 4.97,-24.849 16.388,-27.946 19.096,-5.179 31.182,11.517 27.844,29.691 -0.939,2.463 -2.013,4.67 -3.43,6.89 -1.69,1.951 -3.39,3.889 -5.21,5.721 -1.593,0.935 -3.309,1.841 -4.781,2.96 -4.27,0.8 -9.101,1.284 -13.324,0 -9.60639,-3.8763 5.77387,2.62403 -6.87809,-2.58701 l -3.49896,-2.45684 c -0.979,-0.451 -3.38611,-4.69983 -4.21411,-4.24383 3.45834,1.68689 0.70219,3.15469 -2.89584,-8.02832 z"
         id="path2044" /><path
         fill="#8c544f"
         transform="scale(2)"
         d="m 321.308,230.471 c 0.66,-11.69 7.37,-18.764 19.273,-18.744 -9.028,9.433 2.564,18.706 9.942,6.901 6.631,12.826 2.319,24.861 -13.199,25.208 -8.24,-0.222 -14.452,-5.214 -16.016,-13.365 z"
         id="path2046" /><path
         fill="#5ab4c5"
         transform="scale(2)"
         d="m 246.055,344.527 c 14.425,-2.722 14.821,-27.988 25.125,-30.58 16.103,-4.05 20.654,18.701 18.797,30.58 -0.377,2.544 -0.952,4.979 -1.705,7.436 -7.905,13.911 -16.365,29.695 -33.39,34.354 -3.33,0.911 -6.618,0.469 -9.918,0.988 -2.269,2.568 -3.955,2.445 -6.951,3.545 -1.107,-0.126 -2.006,-0.536 -3.017,-0.969 -0.271,-2.84 0.746,-4.829 1.885,-7.349 -0.553,-1.085 -1.073,-1.932 -1.885,-2.844 -2.171,-2.451 -4.062,-5.086 -5.883,-7.8 -0.417,-1.501 -1,-2.91 -1.909,-4.183 -0.043,-2.657 0.517,-5.302 0.963,-7.912 1.74,-4.806 4.51,-8.191 8.714,-11.081 3.532,-1.032 6.285,-1.823 9.174,-4.185 z"
         id="path2048" /><path
         fill="#fedfaf"
         transform="scale(2)"
         d="m 236.881,382.532 c 3.108,1.489 3.983,3.467 8.083,4.773 -2.269,2.568 -3.955,2.445 -6.951,3.545 -1.107,-0.126 -2.006,-0.536 -3.017,-0.969 -0.271,-2.84 0.746,-4.829 1.885,-7.349 z"
         id="path2050" /><path
         fill="#cf515c"
         transform="scale(2)"
         d="m 243.337,263.072 c -5.569,-6.059 -10,-8.755 -11.869,-17.527 -4.538,-21.307 19.453,-38.685 36.514,-27.215 10.741,7.221 16.07,21.789 8.393,33.28 l -0.009,-0.006 c 0.346,-1.014 0.552,-1.774 0.448,-2.853 6.85,-24.482 -23.091,-42.027 -38.044,-21.968 l 0.636,0.085 c 1.03,2.616 -0.579,3.134 2.818,4.417 -0.143,1.185 -1.57,2.122 -1.809,3.605 -5.314,10.289 -0.27,23.458 12.387,23.941 l 0.033,0.668 c -1.491,1.364 -2.525,1.214 -1.942,3.536 l -0.061,0.156 c -0.835,0.318 -1.845,0.025 -2.71,-0.119 -1.238,-0.311 -2.163,-0.989 -3.158,-1.746 z m -4.567,-36.289 c -9.506,10.743 -5.604,27.133 6.194,34.543 0.995,0.757 1.92,1.435 3.158,1.746 0.865,0.144 1.875,0.437 2.71,0.119 l 0.061,-0.156 c -0.583,-2.322 0.451,-2.172 1.942,-3.536 l -0.033,-0.668 c -12.657,-0.483 -17.701,-13.652 -12.387,-23.941 0.239,-1.483 1.666,-2.42 1.809,-3.605 -3.397,-1.283 -1.788,-1.801 -2.818,-4.417 z"
         id="path2024" /><path
         fill="#cf515c"
         transform="scale(2)"
         d="m 329.476,200.546 c 12.073,-4.24 11.574,-0.463 19.537,0 6.101,3.995 11.357,10.034 12.913,17.302 0.42,1.957 1.398,13.998 -0.814,14.368 3.338,-18.174 -8.748,-34.87 -27.844,-29.691 -11.418,3.097 -19.471,16.403 -16.388,27.946 l 0.44,-0.088 0.113,0.152 0.962,-0.518 c 0.828,-0.456 1.657,-1.073 2.636,-0.622 l 0.277,1.076 c 1.564,8.151 7.776,13.143 16.016,13.365 l 0.425,0.27 c 4.791,0.107 0.367,0.217 3.175,1.682 l 0.032,0.133 c -2.632,0.572 -4.037,0.589 -6.589,1.866 4.223,1.284 9.054,0.8 13.324,0 -1.906,1.227 -3.931,2.28 -5.891,3.418 -3.13,-0.609 -6.194,-0.637 -9.291,-1.608 -22.598,-7.086 -26.172,-37.526 -3.033,-49.051 z m -12.596,29.925 c 2.187,8.726 8.985,15.039 17.487,17.316 2.552,-1.277 3.957,-1.294 6.589,-1.866 l -0.032,-0.133 c -2.808,-1.465 1.616,-1.575 -3.175,-1.682 l -0.425,-0.27 c -8.24,-0.222 -14.452,-5.214 -16.016,-13.365 l -0.277,-1.076 c -0.979,-0.451 -1.808,0.166 -2.636,0.622 l -0.962,0.518 -0.113,-0.152 z"
         id="path2022" /><path
         id="path1968-2"
         d="m 107.11759,555.4015 c -9.393586,3.704 -16.305982,20.80814 -6.59179,25.74414 5.95319,-1.262 12.03919,-21.87414 6.59179,-25.74414 z m 0,28.74022 c -7.927988,2.538 -1.28817,8.33546 3.73243,9.93946 4.23119,-4.284 3.40817,-10.27146 -3.73243,-9.93946 z"
         style="fill:#fefefe;fill-opacity:1;stroke-width:1.99937;stroke-dasharray:none" /></g><path
       fill="#e46766"
       d="m 5.3099531,151.20841 c -0.0746,-2.74547 1.61343,-4.92289 4.52967,-4.8514 8.0338099,0.19696 3.0257799,13.56688 -3.56764,7.09586 -0.53234,-0.68977 -0.74877,-1.417 -0.96203,-2.24446 z"
       id="path1055-3-5"
       style="stroke-width:0.529167" /><path
       fill="#e46766"
       d="m 34.941133,173.57156 c -0.0746,-2.74547 1.61343,-4.92289 4.52967,-4.8514 8.03381,0.19696 3.02578,13.56688 -3.56764,7.09586 -0.53234,-0.68977 -0.74877,-1.417 -0.96203,-2.24446 z"
       id="path1055-3-58"
       style="stroke-width:0.529167" /></g></svg>
