<svg width="24" height="24" viewBox="0 0 24 24" fill="none" xmlns="http://www.w3.org/2000/svg">
<path fill-rule="evenodd" clip-rule="evenodd" d="M17.2187 18.87L20.5039 16.2835C20.9447 15.9335 21.5989 15.909 22.0185 16.2835C22.5553 16.7595 22.5127 17.5715 21.9722 17.995L16.5965 22.23C16.1912 22.5485 15.6899 22.72 15.1744 22.72H2.48887C2.176 22.72 1.92001 22.468 1.92001 22.16V18.8C1.92001 18.492 2.176 18.24 2.48887 18.24H4.45854L6.11178 16.9205C6.85841 16.3255 7.78636 16 8.7463 16H14.4349C15.1282 16 15.6757 16.609 15.5584 17.309C15.5018 17.6451 15.2829 17.9184 14.992 18.08C14.8075 18.1825 14.5939 18.24 14.3744 18.24H11.5906C11.2777 18.24 11.0217 18.492 11.0217 18.8C11.0217 19.108 11.2777 19.36 11.5906 19.36H15.7966C16.3157 19.36 16.817 19.1885 17.2187 18.87ZM16.8139 17.5596L19.708 15.281C19.7088 15.2804 19.7096 15.2797 19.7104 15.2791C20.5669 14.6009 21.9209 14.482 22.8694 15.3273C24.0114 16.3417 23.9204 18.0929 22.7634 19.0012C22.7629 19.0016 22.7623 19.002 22.7618 19.0025L17.3874 23.2364C16.7541 23.7341 15.9735 24 15.1744 24H2.48887C1.48809 24 0.640015 23.1938 0.640015 22.16V18.8C0.640015 17.7662 1.48809 16.96 2.48887 16.96H4.01036L5.31406 15.9195C6.2873 15.1439 7.49648 14.72 8.7463 14.72H14.4349C15.8815 14.72 17.0751 16.0029 16.8208 17.5206L16.8206 17.5213C16.8185 17.5341 16.8162 17.5469 16.8139 17.5596Z" fill="#333333"/>
<path fill-rule="evenodd" clip-rule="evenodd" d="M11.8686 0.183025C12.1173 -0.0608542 12.5154 -0.0610302 12.7644 0.182629L16.4998 3.83888C16.4999 3.83893 16.4998 3.83883 16.4998 3.83888C17.329 4.65005 17.8956 5.68553 18.1254 6.81486C18.3553 7.94435 18.2376 9.11503 17.7878 10.1782C17.3382 11.2413 16.5775 12.1477 15.6041 12.7844C14.6309 13.421 13.488 13.76 12.32 13.76C11.152 13.76 10.0091 13.421 9.03588 12.7844C8.0625 12.1477 7.3018 11.2413 6.85214 10.1782C6.40242 9.11503 6.28473 7.94435 6.51456 6.81486C6.74433 5.68565 7.31067 4.65042 8.13975 3.83929C8.13989 3.83915 8.14003 3.83901 8.14017 3.83888L11.8686 0.183025ZM12.3171 1.53594L9.03522 4.75391C8.387 5.38798 7.94706 6.19429 7.76885 7.07008C7.59066 7.94579 7.68168 8.8537 8.03102 9.67957C8.38042 10.5056 8.97322 11.2139 9.73657 11.7132C10.5001 12.2126 11.3991 12.48 12.32 12.48C13.2408 12.48 14.1399 12.2126 14.9034 11.7132C15.6668 11.2139 16.2596 10.5056 16.609 9.67957C16.9583 8.8537 17.0493 7.94579 16.8711 7.07008C16.6929 6.19429 16.253 5.38798 15.6048 4.75391L12.3171 1.53594Z" fill="#333333"/>
<path fill-rule="evenodd" clip-rule="evenodd" d="M14.1978 6.93361C13.8327 6.45875 13.0999 6.53839 12.8434 7.0808C12.6333 7.52498 12.0067 7.52498 11.7966 7.0808C11.5401 6.53839 10.8073 6.45876 10.4422 6.93361L10.3542 7.04803C10.0212 7.48113 10.0693 8.09876 10.4652 8.47408L12.32 10.2323L14.1748 8.47408C14.5707 8.09876 14.6188 7.48113 14.2858 7.04803L14.1978 6.93361ZM12.32 6.32898C12.9765 5.566 14.2135 5.54964 14.8718 6.40588L14.9598 6.5203C15.5626 7.30424 15.4755 8.4222 14.7589 9.10155L12.7817 10.9758C12.7797 10.9778 12.7775 10.9798 12.7753 10.982C12.7475 11.0084 12.7076 11.0462 12.6683 11.0767C12.6201 11.1142 12.5405 11.1673 12.4295 11.1893C12.3572 11.2036 12.2828 11.2036 12.2105 11.1893C12.0995 11.1673 12.0198 11.1142 11.9717 11.0767C11.9324 11.0462 11.8925 11.0084 11.8647 10.982C11.8625 10.9798 11.8603 10.9778 11.8583 10.9758L9.88112 9.10155C9.16447 8.4222 9.07745 7.30425 9.68018 6.5203L9.76815 6.40588C10.4265 5.54964 11.6635 5.566 12.32 6.32898Z" fill="#27B5C4"/>
</svg>
